<?xml version="1.0" encoding="UTF-8" standalone="no" ?>
<!DOCTYPE svg PUBLIC "-//W3C//DTD SVG 1.1//EN" "http://www.w3.org/Graphics/SVG/1.1/DTD/svg11.dtd">
<svg xmlns="http://www.w3.org/2000/svg" xmlns:xlink="http://www.w3.org/1999/xlink" version="1.1" width="3961" height="1000" viewBox="0 0 3961 1000" xml:space="preserve">
<desc>Created with Fabric.js 4.6.0</desc>
<defs>
</defs>
<g transform="matrix(1.52 0 0 1.52 1452.5 452.51)" id="MFku5wGsvG7sqD5OXUTPf"  >
<path style="stroke: rgb(212,0,0); stroke-width: 32.95; stroke-dasharray: none; stroke-linecap: butt; stroke-dashoffset: 0; stroke-linejoin: miter; stroke-miterlimit: 4; fill: none; fill-rule: nonzero; opacity: 1;" vector-effect="non-scaling-stroke"  transform=" translate(-421.43, -425.22)" d="M 668.57141 425.21933 C 668.57141 561.71256 557.92179 672.3621800000001 421.42856 672.3621800000001 C 284.93533 672.3621800000001 174.28571 561.71256 174.28571 425.21933000000007 C 174.28571 288.7261000000001 284.93533 178.07648000000006 421.42856 178.07648000000006 C 557.92179 178.07648000000006 668.57141 288.7261000000001 668.57141 425.21933000000007 z" stroke-linecap="round" />
</g>
<g transform="matrix(0.71 0 0 0.71 1452.51 452.51)" id="JcWa02mCpJwQ_gcMb3Bqq"  >
<path style="stroke: rgb(212,0,0); stroke-width: 70.61; stroke-dasharray: none; stroke-linecap: butt; stroke-dashoffset: 0; stroke-linejoin: miter; stroke-miterlimit: 4; fill: none; fill-rule: nonzero; opacity: 1;" vector-effect="non-scaling-stroke"  transform=" translate(-421.43, -425.22)" d="M 668.57141 425.21933 C 668.57141 561.71256 557.92179 672.3621800000001 421.42856 672.3621800000001 C 284.93533 672.3621800000001 174.28571 561.71256 174.28571 425.21933000000007 C 174.28571 288.7261000000001 284.93533 178.07648000000006 421.42856 178.07648000000006 C 557.92179 178.07648000000006 668.57141 288.7261000000001 668.57141 425.21933000000007 z" stroke-linecap="round" />
</g>
<g transform="matrix(1.11 0 0 1.11 1452.52 452.51)" id="8Fy3xKz-h61gfw-hE72eH"  >
<path style="stroke: rgb(212,0,0); stroke-width: 44.94; stroke-dasharray: none; stroke-linecap: butt; stroke-dashoffset: 0; stroke-linejoin: miter; stroke-miterlimit: 4; fill: none; fill-rule: nonzero; opacity: 1;" vector-effect="non-scaling-stroke"  transform=" translate(-421.43, -425.22)" d="M 668.57141 425.21933 C 668.57141 561.71256 557.92179 672.3621800000001 421.42856 672.3621800000001 C 284.93533 672.3621800000001 174.28571 561.71256 174.28571 425.21933000000007 C 174.28571 288.7261000000001 284.93533 178.07648000000006 421.42856 178.07648000000006 C 557.92179 178.07648000000006 668.57141 288.7261000000001 668.57141 425.21933000000007 z" stroke-linecap="round" />
</g>
<g transform="matrix(1 0 0 1 1452.51 452.5)" id="cM4YjFUqXAFFjHfTakI0k"  >
<path style="stroke: rgb(36,28,28); stroke-width: 5; stroke-dasharray: none; stroke-linecap: butt; stroke-dashoffset: 0; stroke-linejoin: miter; stroke-miterlimit: 4; fill: none; fill-rule: nonzero; opacity: 1;" vector-effect="non-scaling-stroke"  transform=" translate(-372.05, -526.18)" d="M 372.05257 76.176698 L 372.05257 976.1754999999999" stroke-linecap="round" />
</g>
<g transform="matrix(1 0 0 1 1452.5 452.49)" id="5nsxMU2DSGBAiqqVDzWGf"  >
<path style="stroke: rgb(36,28,28); stroke-width: 5; stroke-dasharray: none; stroke-linecap: butt; stroke-dashoffset: 0; stroke-linejoin: miter; stroke-miterlimit: 4; fill: none; fill-rule: nonzero; opacity: 1;" vector-effect="non-scaling-stroke"  transform=" translate(-372.04, -526.17)" d="M 822.04217 526.16622 L -77.95782299999996 526.16622" stroke-linecap="round" />
</g>
<g transform="matrix(0.4 0 0 0.4 1452.5 452.51)" id="dI-cL8ohxx2IoZ786leZp"  >
<path style="stroke: none; stroke-width: 1; stroke-dasharray: none; stroke-linecap: butt; stroke-dashoffset: 0; stroke-linejoin: miter; stroke-miterlimit: 4; fill: rgb(212,0,0); fill-rule: nonzero; opacity: 1;" vector-effect="non-scaling-stroke"  transform=" translate(-421.43, -425.22)" d="M 668.57141 425.21933 C 668.57141 561.71256 557.92179 672.3621800000001 421.42856 672.3621800000001 C 284.93533 672.3621800000001 174.28571 561.71256 174.28571 425.21933000000007 C 174.28571 288.7261000000001 284.93533 178.07648000000006 421.42856 178.07648000000006 C 557.92179 178.07648000000006 668.57141 288.7261000000001 668.57141 425.21933000000007 z" stroke-linecap="round" />
</g>
<g transform="matrix(1.52 0 0 1.52 3452.49 452.51)" id="2tQgaFztNJwZ5cwPxS1au"  >
<path style="stroke: rgb(212,0,0); stroke-width: 32.95; stroke-dasharray: none; stroke-linecap: butt; stroke-dashoffset: 0; stroke-linejoin: miter; stroke-miterlimit: 4; fill: none; fill-rule: nonzero; opacity: 1;" vector-effect="non-scaling-stroke"  transform=" translate(-421.43, -425.22)" d="M 668.57141 425.21933 C 668.57141 561.71256 557.92179 672.3621800000001 421.42856 672.3621800000001 C 284.93533 672.3621800000001 174.28571 561.71256 174.28571 425.21933000000007 C 174.28571 288.7261000000001 284.93533 178.07648000000006 421.42856 178.07648000000006 C 557.92179 178.07648000000006 668.57141 288.7261000000001 668.57141 425.21933000000007 z" stroke-linecap="round" />
</g>
<g transform="matrix(0.71 0 0 0.71 3452.51 452.51)" id="1FwNn8bbDgfl5xjgLNCzR"  >
<path style="stroke: rgb(212,0,0); stroke-width: 70.61; stroke-dasharray: none; stroke-linecap: butt; stroke-dashoffset: 0; stroke-linejoin: miter; stroke-miterlimit: 4; fill: none; fill-rule: nonzero; opacity: 1;" vector-effect="non-scaling-stroke"  transform=" translate(-421.43, -425.22)" d="M 668.57141 425.21933 C 668.57141 561.71256 557.92179 672.3621800000001 421.42856 672.3621800000001 C 284.93533 672.3621800000001 174.28571 561.71256 174.28571 425.21933000000007 C 174.28571 288.7261000000001 284.93533 178.07648000000006 421.42856 178.07648000000006 C 557.92179 178.07648000000006 668.57141 288.7261000000001 668.57141 425.21933000000007 z" stroke-linecap="round" />
</g>
<g transform="matrix(1.11 0 0 1.11 3452.51 452.51)" id="Pxb44SUA0u6f_A8aq_xeN"  >
<path style="stroke: rgb(212,0,0); stroke-width: 44.94; stroke-dasharray: none; stroke-linecap: butt; stroke-dashoffset: 0; stroke-linejoin: miter; stroke-miterlimit: 4; fill: none; fill-rule: nonzero; opacity: 1;" vector-effect="non-scaling-stroke"  transform=" translate(-421.43, -425.22)" d="M 668.57141 425.21933 C 668.57141 561.71256 557.92179 672.3621800000001 421.42856 672.3621800000001 C 284.93533 672.3621800000001 174.28571 561.71256 174.28571 425.21933000000007 C 174.28571 288.7261000000001 284.93533 178.07648000000006 421.42856 178.07648000000006 C 557.92179 178.07648000000006 668.57141 288.7261000000001 668.57141 425.21933000000007 z" stroke-linecap="round" />
</g>
<g transform="matrix(1 0 0 1 3452.51 452.5)" id="16aH1kQThu1KN_b6P99rW"  >
<path style="stroke: rgb(36,28,28); stroke-width: 5; stroke-dasharray: none; stroke-linecap: butt; stroke-dashoffset: 0; stroke-linejoin: miter; stroke-miterlimit: 4; fill: none; fill-rule: nonzero; opacity: 1;" vector-effect="non-scaling-stroke"  transform=" translate(-372.05, -526.18)" d="M 372.05257 76.176698 L 372.05257 976.1754999999999" stroke-linecap="round" />
</g>
<g transform="matrix(1 0 0 1 3452.5 452.49)" id="bFmKOBiyi64OGpT0L93Zn"  >
<path style="stroke: rgb(36,28,28); stroke-width: 5; stroke-dasharray: none; stroke-linecap: butt; stroke-dashoffset: 0; stroke-linejoin: miter; stroke-miterlimit: 4; fill: none; fill-rule: nonzero; opacity: 1;" vector-effect="non-scaling-stroke"  transform=" translate(-372.04, -526.17)" d="M 822.04217 526.16622 L -77.95782299999996 526.16622" stroke-linecap="round" />
</g>
<g transform="matrix(0.4 0 0 0.4 3452.49 452.51)" id="HF7v9nEn87X6pwXzUXKdr"  >
<path style="stroke: none; stroke-width: 1; stroke-dasharray: none; stroke-linecap: butt; stroke-dashoffset: 0; stroke-linejoin: miter; stroke-miterlimit: 4; fill: rgb(212,0,0); fill-rule: nonzero; opacity: 1;" vector-effect="non-scaling-stroke"  transform=" translate(-421.43, -425.22)" d="M 668.57141 425.21933 C 668.57141 561.71256 557.92179 672.3621800000001 421.42856 672.3621800000001 C 284.93533 672.3621800000001 174.28571 561.71256 174.28571 425.21933000000007 C 174.28571 288.7261000000001 284.93533 178.07648000000006 421.42856 178.07648000000006 C 557.92179 178.07648000000006 668.57141 288.7261000000001 668.57141 425.21933000000007 z" stroke-linecap="round" />
</g>
<g transform="matrix(0.61 0 0 0.61 3523.42 534.37)" id="f8B2zizsBDceNdPNacQGd"  >
<path style="stroke: none; stroke-width: 1; stroke-dasharray: none; stroke-linecap: butt; stroke-dashoffset: 0; stroke-linejoin: miter; stroke-miterlimit: 4; fill: rgb(0,0,0); fill-rule: nonzero; opacity: 1;" vector-effect="non-scaling-stroke"  transform=" translate(609.71, -983.56)" d="M -588.00778 983.56458 C -588.00778 995.55191 -597.72544 1005.2696 -609.71277 1005.2696 C -621.7001 1005.2696 -631.41775 995.55191 -631.41775 983.56458 C -631.41775 971.57724 -621.7000999999999 961.85959 -609.71277 961.85959 C -597.7254399999999 961.85959 -588.00778 971.5772400000001 -588.00778 983.56458 z" stroke-linecap="round" />
</g>
<g transform="matrix(0.59 0 0 0.59 3539.55 415.72)" id="tOWVurBFvs4Pdp6YNYDN5"  >
<path style="stroke: none; stroke-width: 1; stroke-dasharray: none; stroke-linecap: butt; stroke-dashoffset: 0; stroke-linejoin: miter; stroke-miterlimit: 4; fill: rgb(0,0,0); fill-rule: nonzero; opacity: 1;" vector-effect="non-scaling-stroke"  transform=" translate(609.71, -983.56)" d="M -588.00778 983.56458 C -588.00778 995.55191 -597.72544 1005.2696 -609.71277 1005.2696 C -621.7001 1005.2696 -631.41775 995.55191 -631.41775 983.56458 C -631.41775 971.57724 -621.7000999999999 961.85959 -609.71277 961.85959 C -597.7254399999999 961.85959 -588.00778 971.5772400000001 -588.00778 983.56458 z" stroke-linecap="round" />
</g>
<g transform="matrix(1.07 0 0 1.07 3358.3 438.64)" id="Ha7soVJ7ZzfUq7PnGCMiq"  >
<path style="stroke: none; stroke-width: 1; stroke-dasharray: none; stroke-linecap: butt; stroke-dashoffset: 0; stroke-linejoin: miter; stroke-miterlimit: 4; fill: rgb(0,0,0); fill-rule: nonzero; opacity: 1;" vector-effect="non-scaling-stroke"  transform=" translate(609.71, -983.56)" d="M -588.00778 983.56458 C -588.00778 995.55191 -597.72544 1005.2696 -609.71277 1005.2696 C -621.7001 1005.2696 -631.41775 995.55191 -631.41775 983.56458 C -631.41775 971.57724 -621.7000999999999 961.85959 -609.71277 961.85959 C -597.7254399999999 961.85959 -588.00778 971.5772400000001 -588.00778 983.56458 z" stroke-linecap="round" />
</g>
<g transform="matrix(0.66 0 0 0.66 3388.45 399.2)" id="8ta6G3vL3BTT-X0s8Tbep"  >
<path style="stroke: none; stroke-width: 1; stroke-dasharray: none; stroke-linecap: butt; stroke-dashoffset: 0; stroke-linejoin: miter; stroke-miterlimit: 4; fill: rgb(0,0,0); fill-rule: nonzero; opacity: 1;" vector-effect="non-scaling-stroke"  transform=" translate(609.71, -983.56)" d="M -588.00778 983.56458 C -588.00778 995.55191 -597.72544 1005.2696 -609.71277 1005.2696 C -621.7001 1005.2696 -631.41775 995.55191 -631.41775 983.56458 C -631.41775 971.57724 -621.7000999999999 961.85959 -609.71277 961.85959 C -597.7254399999999 961.85959 -588.00778 971.5772400000001 -588.00778 983.56458 z" stroke-linecap="round" />
</g>
<g transform="matrix(1.08 0 0 1.08 3413.57 359.55)" id="j6sNuseL9vfYmGJwAGPLd"  >
<path style="stroke: none; stroke-width: 1; stroke-dasharray: none; stroke-linecap: butt; stroke-dashoffset: 0; stroke-linejoin: miter; stroke-miterlimit: 4; fill: rgb(0,0,0); fill-rule: nonzero; opacity: 1;" vector-effect="non-scaling-stroke"  transform=" translate(609.71, -983.56)" d="M -588.00778 983.56458 C -588.00778 995.55191 -597.72544 1005.2696 -609.71277 1005.2696 C -621.7001 1005.2696 -631.41775 995.55191 -631.41775 983.56458 C -631.41775 971.57724 -621.7000999999999 961.85959 -609.71277 961.85959 C -597.7254399999999 961.85959 -588.00778 971.5772400000001 -588.00778 983.56458 z" stroke-linecap="round" />
</g>
<g transform="matrix(1.22 0 0 1.22 3410.04 475.71)" id="BEqtw6N04v1Pwg0eQBEs6"  >
<path style="stroke: none; stroke-width: 1; stroke-dasharray: none; stroke-linecap: butt; stroke-dashoffset: 0; stroke-linejoin: miter; stroke-miterlimit: 4; fill: rgb(0,0,0); fill-rule: nonzero; opacity: 1;" vector-effect="non-scaling-stroke"  transform=" translate(609.71, -983.56)" d="M -588.00778 983.56458 C -588.00778 995.55191 -597.72544 1005.2696 -609.71277 1005.2696 C -621.7001 1005.2696 -631.41775 995.55191 -631.41775 983.56458 C -631.41775 971.57724 -621.7000999999999 961.85959 -609.71277 961.85959 C -597.7254399999999 961.85959 -588.00778 971.5772400000001 -588.00778 983.56458 z" stroke-linecap="round" />
</g>
<g transform="matrix(0.73 0 0 0.73 3463.13 472.92)" id="9gwKgPQFf6I0G0N51owPr"  >
<path style="stroke: none; stroke-width: 1; stroke-dasharray: none; stroke-linecap: butt; stroke-dashoffset: 0; stroke-linejoin: miter; stroke-miterlimit: 4; fill: rgb(0,0,0); fill-rule: nonzero; opacity: 1;" vector-effect="non-scaling-stroke"  transform=" translate(609.71, -983.56)" d="M -588.00778 983.56458 C -588.00778 995.55191 -597.72544 1005.2696 -609.71277 1005.2696 C -621.7001 1005.2696 -631.41775 995.55191 -631.41775 983.56458 C -631.41775 971.57724 -621.7000999999999 961.85959 -609.71277 961.85959 C -597.7254399999999 961.85959 -588.00778 971.5772400000001 -588.00778 983.56458 z" stroke-linecap="round" />
</g>
<g transform="matrix(0.5 0 0 0.5 3429.35 546.48)" id="05F2oUab6LRvwJbdRJL8p"  >
<path style="stroke: none; stroke-width: 1; stroke-dasharray: none; stroke-linecap: butt; stroke-dashoffset: 0; stroke-linejoin: miter; stroke-miterlimit: 4; fill: rgb(0,0,0); fill-rule: nonzero; opacity: 1;" vector-effect="non-scaling-stroke"  transform=" translate(609.71, -983.56)" d="M -588.00778 983.56458 C -588.00778 995.55191 -597.72544 1005.2696 -609.71277 1005.2696 C -621.7001 1005.2696 -631.41775 995.55191 -631.41775 983.56458 C -631.41775 971.57724 -621.7000999999999 961.85959 -609.71277 961.85959 C -597.7254399999999 961.85959 -588.00778 971.5772400000001 -588.00778 983.56458 z" stroke-linecap="round" />
</g>
<g transform="matrix(0.79 0 0 0.79 3423.23 422.22)" id="-Retp-db0PCDmO95Hd8jj"  >
<path style="stroke: none; stroke-width: 1; stroke-dasharray: none; stroke-linecap: butt; stroke-dashoffset: 0; stroke-linejoin: miter; stroke-miterlimit: 4; fill: rgb(0,0,0); fill-rule: nonzero; opacity: 1;" vector-effect="non-scaling-stroke"  transform=" translate(609.71, -983.56)" d="M -588.00778 983.56458 C -588.00778 995.55191 -597.72544 1005.2696 -609.71277 1005.2696 C -621.7001 1005.2696 -631.41775 995.55191 -631.41775 983.56458 C -631.41775 971.57724 -621.7000999999999 961.85959 -609.71277 961.85959 C -597.7254399999999 961.85959 -588.00778 971.5772400000001 -588.00778 983.56458 z" stroke-linecap="round" />
</g>
<g transform="matrix(0.51 0 0 0.51 3471.12 554.07)" id="5FGAuzTSlWR5YrBQ1F2mJ"  >
<path style="stroke: none; stroke-width: 1; stroke-dasharray: none; stroke-linecap: butt; stroke-dashoffset: 0; stroke-linejoin: miter; stroke-miterlimit: 4; fill: rgb(0,0,0); fill-rule: nonzero; opacity: 1;" vector-effect="non-scaling-stroke"  transform=" translate(609.71, -983.56)" d="M -588.00778 983.56458 C -588.00778 995.55191 -597.72544 1005.2696 -609.71277 1005.2696 C -621.7001 1005.2696 -631.41775 995.55191 -631.41775 983.56458 C -631.41775 971.57724 -621.7000999999999 961.85959 -609.71277 961.85959 C -597.7254399999999 961.85959 -588.00778 971.5772400000001 -588.00778 983.56458 z" stroke-linecap="round" />
</g>
<g transform="matrix(1.2 0 0 1.2 3515.57 362.06)" id="XWPgypdrf4ZId3vpZZoU3"  >
<path style="stroke: none; stroke-width: 1; stroke-dasharray: none; stroke-linecap: butt; stroke-dashoffset: 0; stroke-linejoin: miter; stroke-miterlimit: 4; fill: rgb(0,0,0); fill-rule: nonzero; opacity: 1;" vector-effect="non-scaling-stroke"  transform=" translate(609.71, -983.56)" d="M -588.00778 983.56458 C -588.00778 995.55191 -597.72544 1005.2696 -609.71277 1005.2696 C -621.7001 1005.2696 -631.41775 995.55191 -631.41775 983.56458 C -631.41775 971.57724 -621.7000999999999 961.85959 -609.71277 961.85959 C -597.7254399999999 961.85959 -588.00778 971.5772400000001 -588.00778 983.56458 z" stroke-linecap="round" />
</g>
<g transform="matrix(1.46 0 0 1.46 3538.57 474.39)" id="VJgYVLNvHyRQxwWoKMW0U"  >
<path style="stroke: none; stroke-width: 1; stroke-dasharray: none; stroke-linecap: butt; stroke-dashoffset: 0; stroke-linejoin: miter; stroke-miterlimit: 4; fill: rgb(0,0,0); fill-rule: nonzero; opacity: 1;" vector-effect="non-scaling-stroke"  transform=" translate(609.71, -983.56)" d="M -588.00778 983.56458 C -588.00778 995.55191 -597.72544 1005.2696 -609.71277 1005.2696 C -621.7001 1005.2696 -631.41775 995.55191 -631.41775 983.56458 C -631.41775 971.57724 -621.7000999999999 961.85959 -609.71277 961.85959 C -597.7254399999999 961.85959 -588.00778 971.5772400000001 -588.00778 983.56458 z" stroke-linecap="round" />
</g>
<g transform="matrix(0.83 0 0 0.83 3477.68 517.33)" id="Y1GXg7l1mBM_qEkYn0TaT"  >
<path style="stroke: none; stroke-width: 1; stroke-dasharray: none; stroke-linecap: butt; stroke-dashoffset: 0; stroke-linejoin: miter; stroke-miterlimit: 4; fill: rgb(0,0,0); fill-rule: nonzero; opacity: 1;" vector-effect="non-scaling-stroke"  transform=" translate(609.71, -983.56)" d="M -588.00778 983.56458 C -588.00778 995.55191 -597.72544 1005.2696 -609.71277 1005.2696 C -621.7001 1005.2696 -631.41775 995.55191 -631.41775 983.56458 C -631.41775 971.57724 -621.7000999999999 961.85959 -609.71277 961.85959 C -597.7254399999999 961.85959 -588.00778 971.5772400000001 -588.00778 983.56458 z" stroke-linecap="round" />
</g>
<g transform="matrix(1.22 0 0 1.22 3478.92 415.93)" id="4cK4MIbrKvCykStxLNrz3"  >
<path style="stroke: none; stroke-width: 1; stroke-dasharray: none; stroke-linecap: butt; stroke-dashoffset: 0; stroke-linejoin: miter; stroke-miterlimit: 4; fill: rgb(0,0,0); fill-rule: nonzero; opacity: 1;" vector-effect="non-scaling-stroke"  transform=" translate(609.71, -983.56)" d="M -588.00778 983.56458 C -588.00778 995.55191 -597.72544 1005.2696 -609.71277 1005.2696 C -621.7001 1005.2696 -631.41775 995.55191 -631.41775 983.56458 C -631.41775 971.57724 -621.7000999999999 961.85959 -609.71277 961.85959 C -597.7254399999999 961.85959 -588.00778 971.5772400000001 -588.00778 983.56458 z" stroke-linecap="round" />
</g>
<g transform="matrix(0.83 0 0 0.83 3378.47 522.55)" id="VVRyBPr5P2qSDz0MRKZDf"  >
<path style="stroke: none; stroke-width: 1; stroke-dasharray: none; stroke-linecap: butt; stroke-dashoffset: 0; stroke-linejoin: miter; stroke-miterlimit: 4; fill: rgb(0,0,0); fill-rule: nonzero; opacity: 1;" vector-effect="non-scaling-stroke"  transform=" translate(609.71, -983.56)" d="M -588.00778 983.56458 C -588.00778 995.55191 -597.72544 1005.2696 -609.71277 1005.2696 C -621.7001 1005.2696 -631.41775 995.55191 -631.41775 983.56458 C -631.41775 971.57724 -621.7000999999999 961.85959 -609.71277 961.85959 C -597.7254399999999 961.85959 -588.00778 971.5772400000001 -588.00778 983.56458 z" stroke-linecap="round" />
</g>
<g transform="matrix(1.3 0 0 1.3 1675.07 201.44)" id="t49dj1g-LCoQvsEq7UnjC"  >
<path style="stroke: none; stroke-width: 1; stroke-dasharray: none; stroke-linecap: butt; stroke-dashoffset: 0; stroke-linejoin: miter; stroke-miterlimit: 4; fill: rgb(0,0,0); fill-rule: nonzero; opacity: 1;" vector-effect="non-scaling-stroke"  transform=" translate(609.71, -983.56)" d="M -588.00778 983.56458 C -588.00778 995.55191 -597.72544 1005.2696 -609.71277 1005.2696 C -621.7001 1005.2696 -631.41775 995.55191 -631.41775 983.56458 C -631.41775 971.57724 -621.7000999999999 961.85959 -609.71277 961.85959 C -597.7254399999999 961.85959 -588.00778 971.5772400000001 -588.00778 983.56458 z" stroke-linecap="round" />
</g>
<g transform="matrix(0.52 0 0 0.52 1583.94 203)" id="ks6UfvRSzl212SLDVZ7vP"  >
<path style="stroke: none; stroke-width: 1; stroke-dasharray: none; stroke-linecap: butt; stroke-dashoffset: 0; stroke-linejoin: miter; stroke-miterlimit: 4; fill: rgb(0,0,0); fill-rule: nonzero; opacity: 1;" vector-effect="non-scaling-stroke"  transform=" translate(609.71, -983.56)" d="M -588.00778 983.56458 C -588.00778 995.55191 -597.72544 1005.2696 -609.71277 1005.2696 C -621.7001 1005.2696 -631.41775 995.55191 -631.41775 983.56458 C -631.41775 971.57724 -621.7000999999999 961.85959 -609.71277 961.85959 C -597.7254399999999 961.85959 -588.00778 971.5772400000001 -588.00778 983.56458 z" stroke-linecap="round" />
</g>
<g transform="matrix(0.54 0 0 0.54 1761.61 220.16)" id="uqDugj2kz9AeeR3B2kz-M"  >
<path style="stroke: none; stroke-width: 1; stroke-dasharray: none; stroke-linecap: butt; stroke-dashoffset: 0; stroke-linejoin: miter; stroke-miterlimit: 4; fill: rgb(0,0,0); fill-rule: nonzero; opacity: 1;" vector-effect="non-scaling-stroke"  transform=" translate(609.71, -983.56)" d="M -588.00778 983.56458 C -588.00778 995.55191 -597.72544 1005.2696 -609.71277 1005.2696 C -621.7001 1005.2696 -631.41775 995.55191 -631.41775 983.56458 C -631.41775 971.57724 -621.7000999999999 961.85959 -609.71277 961.85959 C -597.7254399999999 961.85959 -588.00778 971.5772400000001 -588.00778 983.56458 z" stroke-linecap="round" />
</g>
<g transform="matrix(1.11 0 0 1.11 1675.81 276.44)" id="Ot7eh8b_S3FKBh2F6JWd1"  >
<path style="stroke: none; stroke-width: 1; stroke-dasharray: none; stroke-linecap: butt; stroke-dashoffset: 0; stroke-linejoin: miter; stroke-miterlimit: 4; fill: rgb(0,0,0); fill-rule: nonzero; opacity: 1;" vector-effect="non-scaling-stroke"  transform=" translate(609.71, -983.56)" d="M -588.00778 983.56458 C -588.00778 995.55191 -597.72544 1005.2696 -609.71277 1005.2696 C -621.7001 1005.2696 -631.41775 995.55191 -631.41775 983.56458 C -631.41775 971.57724 -621.7000999999999 961.85959 -609.71277 961.85959 C -597.7254399999999 961.85959 -588.00778 971.5772400000001 -588.00778 983.56458 z" stroke-linecap="round" />
</g>
<g transform="matrix(0.91 0 0 0.91 1715.52 295.96)" id="BYNBWUMfWulXlstRcjLbP"  >
<path style="stroke: none; stroke-width: 1; stroke-dasharray: none; stroke-linecap: butt; stroke-dashoffset: 0; stroke-linejoin: miter; stroke-miterlimit: 4; fill: rgb(0,0,0); fill-rule: nonzero; opacity: 1;" vector-effect="non-scaling-stroke"  transform=" translate(609.71, -983.56)" d="M -588.00778 983.56458 C -588.00778 995.55191 -597.72544 1005.2696 -609.71277 1005.2696 C -621.7001 1005.2696 -631.41775 995.55191 -631.41775 983.56458 C -631.41775 971.57724 -621.7000999999999 961.85959 -609.71277 961.85959 C -597.7254399999999 961.85959 -588.00778 971.5772400000001 -588.00778 983.56458 z" stroke-linecap="round" />
</g>
<g transform="matrix(0.63 0 0 0.63 1715.42 174.68)" id="Aw-kj7d26y6yIjrSkvH7F"  >
<path style="stroke: none; stroke-width: 1; stroke-dasharray: none; stroke-linecap: butt; stroke-dashoffset: 0; stroke-linejoin: miter; stroke-miterlimit: 4; fill: rgb(0,0,0); fill-rule: nonzero; opacity: 1;" vector-effect="non-scaling-stroke"  transform=" translate(609.71, -983.56)" d="M -588.00778 983.56458 C -588.00778 995.55191 -597.72544 1005.2696 -609.71277 1005.2696 C -621.7001 1005.2696 -631.41775 995.55191 -631.41775 983.56458 C -631.41775 971.57724 -621.7000999999999 961.85959 -609.71277 961.85959 C -597.7254399999999 961.85959 -588.00778 971.5772400000001 -588.00778 983.56458 z" stroke-linecap="round" />
</g>
<g transform="matrix(1 0 0 1 1683.91 148.77)" id="ARXRKkJM_8UVO6iFEsaSk"  >
<path style="stroke: none; stroke-width: 1; stroke-dasharray: none; stroke-linecap: butt; stroke-dashoffset: 0; stroke-linejoin: miter; stroke-miterlimit: 4; fill: rgb(0,0,0); fill-rule: nonzero; opacity: 1;" vector-effect="non-scaling-stroke"  transform=" translate(609.71, -983.56)" d="M -588.00778 983.56458 C -588.00778 995.55191 -597.72544 1005.2696 -609.71277 1005.2696 C -621.7001 1005.2696 -631.41775 995.55191 -631.41775 983.56458 C -631.41775 971.57724 -621.7000999999999 961.85959 -609.71277 961.85959 C -597.7254399999999 961.85959 -588.00778 971.5772400000001 -588.00778 983.56458 z" stroke-linecap="round" />
</g>
<g transform="matrix(0.64 0 0 0.64 1632.79 284.98)" id="oFVJyBlJ33qkEeuDVQvKy"  >
<path style="stroke: none; stroke-width: 1; stroke-dasharray: none; stroke-linecap: butt; stroke-dashoffset: 0; stroke-linejoin: miter; stroke-miterlimit: 4; fill: rgb(0,0,0); fill-rule: nonzero; opacity: 1;" vector-effect="non-scaling-stroke"  transform=" translate(609.71, -983.56)" d="M -588.00778 983.56458 C -588.00778 995.55191 -597.72544 1005.2696 -609.71277 1005.2696 C -621.7001 1005.2696 -631.41775 995.55191 -631.41775 983.56458 C -631.41775 971.57724 -621.7000999999999 961.85959 -609.71277 961.85959 C -597.7254399999999 961.85959 -588.00778 971.5772400000001 -588.00778 983.56458 z" stroke-linecap="round" />
</g>
<g transform="matrix(0.5 0 0 0.5 1689.18 241.72)" id="uh_UwK_1onBos4nVIUNgR"  >
<path style="stroke: none; stroke-width: 1; stroke-dasharray: none; stroke-linecap: butt; stroke-dashoffset: 0; stroke-linejoin: miter; stroke-miterlimit: 4; fill: rgb(0,0,0); fill-rule: nonzero; opacity: 1;" vector-effect="non-scaling-stroke"  transform=" translate(609.71, -983.56)" d="M -588.00778 983.56458 C -588.00778 995.55191 -597.72544 1005.2696 -609.71277 1005.2696 C -621.7001 1005.2696 -631.41775 995.55191 -631.41775 983.56458 C -631.41775 971.57724 -621.7000999999999 961.85959 -609.71277 961.85959 C -597.7254399999999 961.85959 -588.00778 971.5772400000001 -588.00778 983.56458 z" stroke-linecap="round" />
</g>
<g transform="matrix(1.22 0 0 1.22 1613.48 239.13)" id="cmNVHl-dqE5kPj3GcrFqS"  >
<path style="stroke: none; stroke-width: 1; stroke-dasharray: none; stroke-linecap: butt; stroke-dashoffset: 0; stroke-linejoin: miter; stroke-miterlimit: 4; fill: rgb(0,0,0); fill-rule: nonzero; opacity: 1;" vector-effect="non-scaling-stroke"  transform=" translate(609.71, -983.56)" d="M -588.00778 983.56458 C -588.00778 995.55191 -597.72544 1005.2696 -609.71277 1005.2696 C -621.7001 1005.2696 -631.41775 995.55191 -631.41775 983.56458 C -631.41775 971.57724 -621.7000999999999 961.85959 -609.71277 961.85959 C -597.7254399999999 961.85959 -588.00778 971.5772400000001 -588.00778 983.56458 z" stroke-linecap="round" />
</g>
<g transform="matrix(0.68 0 0 0.68 1660.65 240.06)" id="oOWL9tZu2yskdDmsN0fZG"  >
<path style="stroke: none; stroke-width: 1; stroke-dasharray: none; stroke-linecap: butt; stroke-dashoffset: 0; stroke-linejoin: miter; stroke-miterlimit: 4; fill: rgb(0,0,0); fill-rule: nonzero; opacity: 1;" vector-effect="non-scaling-stroke"  transform=" translate(609.71, -983.56)" d="M -588.00778 983.56458 C -588.00778 995.55191 -597.72544 1005.2696 -609.71277 1005.2696 C -621.7001 1005.2696 -631.41775 995.55191 -631.41775 983.56458 C -631.41775 971.57724 -621.7000999999999 961.85959 -609.71277 961.85959 C -597.7254399999999 961.85959 -588.00778 971.5772400000001 -588.00778 983.56458 z" stroke-linecap="round" />
</g>
<g transform="matrix(0.65 0 0 0.65 1738.56 202.36)" id="SDBN1pirimpUxMcqG4asX"  >
<path style="stroke: none; stroke-width: 1; stroke-dasharray: none; stroke-linecap: butt; stroke-dashoffset: 0; stroke-linejoin: miter; stroke-miterlimit: 4; fill: rgb(0,0,0); fill-rule: nonzero; opacity: 1;" vector-effect="non-scaling-stroke"  transform=" translate(609.71, -983.56)" d="M -588.00778 983.56458 C -588.00778 995.55191 -597.72544 1005.2696 -609.71277 1005.2696 C -621.7001 1005.2696 -631.41775 995.55191 -631.41775 983.56458 C -631.41775 971.57724 -621.7000999999999 961.85959 -609.71277 961.85959 C -597.7254399999999 961.85959 -588.00778 971.5772400000001 -588.00778 983.56458 z" stroke-linecap="round" />
</g>
<g transform="matrix(0.62 0 0 0.62 1648.73 130.17)" id="JtWDzhQj8Xd-DRvdlZ0vJ"  >
<path style="stroke: none; stroke-width: 1; stroke-dasharray: none; stroke-linecap: butt; stroke-dashoffset: 0; stroke-linejoin: miter; stroke-miterlimit: 4; fill: rgb(0,0,0); fill-rule: nonzero; opacity: 1;" vector-effect="non-scaling-stroke"  transform=" translate(609.71, -983.56)" d="M -588.00778 983.56458 C -588.00778 995.55191 -597.72544 1005.2696 -609.71277 1005.2696 C -621.7001 1005.2696 -631.41775 995.55191 -631.41775 983.56458 C -631.41775 971.57724 -621.7000999999999 961.85959 -609.71277 961.85959 C -597.7254399999999 961.85959 -588.00778 971.5772400000001 -588.00778 983.56458 z" stroke-linecap="round" />
</g>
<g transform="matrix(1.19 0 0 1.19 1728.51 249.58)" id="cGZGoIs9KvXT_ksf_o47Y"  >
<path style="stroke: none; stroke-width: 1; stroke-dasharray: none; stroke-linecap: butt; stroke-dashoffset: 0; stroke-linejoin: miter; stroke-miterlimit: 4; fill: rgb(0,0,0); fill-rule: nonzero; opacity: 1;" vector-effect="non-scaling-stroke"  transform=" translate(609.71, -983.56)" d="M -588.00778 983.56458 C -588.00778 995.55191 -597.72544 1005.2696 -609.71277 1005.2696 C -621.7001 1005.2696 -631.41775 995.55191 -631.41775 983.56458 C -631.41775 971.57724 -621.7000999999999 961.85959 -609.71277 961.85959 C -597.7254399999999 961.85959 -588.00778 971.5772400000001 -588.00778 983.56458 z" stroke-linecap="round" />
</g>
<g transform="matrix(1.13 0 0 1.13 1628.61 174.11)" id="D7W0l3Fm7jU0AbnP3oI_F"  >
<path style="stroke: none; stroke-width: 1; stroke-dasharray: none; stroke-linecap: butt; stroke-dashoffset: 0; stroke-linejoin: miter; stroke-miterlimit: 4; fill: rgb(0,0,0); fill-rule: nonzero; opacity: 1;" vector-effect="non-scaling-stroke"  transform=" translate(609.71, -983.56)" d="M -588.00778 983.56458 C -588.00778 995.55191 -597.72544 1005.2696 -609.71277 1005.2696 C -621.7001 1005.2696 -631.41775 995.55191 -631.41775 983.56458 C -631.41775 971.57724 -621.7000999999999 961.85959 -609.71277 961.85959 C -597.7254399999999 961.85959 -588.00778 971.5772400000001 -588.00778 983.56458 z" stroke-linecap="round" />
</g>
<g transform="matrix(-1.52 0 0 1.52 452.51 452.51)" id="ve1ZRn1qLhTU6rHDGra9o"  >
<path style="stroke: rgb(212,0,0); stroke-width: 32.95; stroke-dasharray: none; stroke-linecap: butt; stroke-dashoffset: 0; stroke-linejoin: miter; stroke-miterlimit: 4; fill: none; fill-rule: nonzero; opacity: 1;" vector-effect="non-scaling-stroke"  transform=" translate(-421.43, -425.22)" d="M 668.57141 425.21933 C 668.57141 561.71256 557.92179 672.3621800000001 421.42856 672.3621800000001 C 284.93533 672.3621800000001 174.28571 561.71256 174.28571 425.21933000000007 C 174.28571 288.7261000000001 284.93533 178.07648000000006 421.42856 178.07648000000006 C 557.92179 178.07648000000006 668.57141 288.7261000000001 668.57141 425.21933000000007 z" stroke-linecap="round" />
</g>
<g transform="matrix(-0.71 0 0 0.71 452.49 452.51)" id="qOTGJgQrLt_0iUPrTWVgO"  >
<path style="stroke: rgb(212,0,0); stroke-width: 70.61; stroke-dasharray: none; stroke-linecap: butt; stroke-dashoffset: 0; stroke-linejoin: miter; stroke-miterlimit: 4; fill: none; fill-rule: nonzero; opacity: 1;" vector-effect="non-scaling-stroke"  transform=" translate(-421.43, -425.22)" d="M 668.57141 425.21933 C 668.57141 561.71256 557.92179 672.3621800000001 421.42856 672.3621800000001 C 284.93533 672.3621800000001 174.28571 561.71256 174.28571 425.21933000000007 C 174.28571 288.7261000000001 284.93533 178.07648000000006 421.42856 178.07648000000006 C 557.92179 178.07648000000006 668.57141 288.7261000000001 668.57141 425.21933000000007 z" stroke-linecap="round" />
</g>
<g transform="matrix(-1.11 0 0 1.11 452.48 452.5)" id="JjlipUPEyS-u3ejjKlCH7"  >
<path style="stroke: rgb(212,0,0); stroke-width: 44.94; stroke-dasharray: none; stroke-linecap: butt; stroke-dashoffset: 0; stroke-linejoin: miter; stroke-miterlimit: 4; fill: none; fill-rule: nonzero; opacity: 1;" vector-effect="non-scaling-stroke"  transform=" translate(-421.43, -425.22)" d="M 668.57141 425.21933 C 668.57141 561.71256 557.92179 672.3621800000001 421.42856 672.3621800000001 C 284.93533 672.3621800000001 174.28571 561.71256 174.28571 425.21933000000007 C 174.28571 288.7261000000001 284.93533 178.07648000000006 421.42856 178.07648000000006 C 557.92179 178.07648000000006 668.57141 288.7261000000001 668.57141 425.21933000000007 z" stroke-linecap="round" />
</g>
<g transform="matrix(-1 0 0 1 452.49 452.5)" id="0Q1hDKRA3vHw1MJsNa3Ba"  >
<path style="stroke: rgb(36,28,28); stroke-width: 5; stroke-dasharray: none; stroke-linecap: butt; stroke-dashoffset: 0; stroke-linejoin: miter; stroke-miterlimit: 4; fill: none; fill-rule: nonzero; opacity: 1;" vector-effect="non-scaling-stroke"  transform=" translate(-372.05, -526.18)" d="M 372.05257 76.176698 L 372.05257 976.1754999999999" stroke-linecap="round" />
</g>
<g transform="matrix(-1 0 0 1 452.5 452.49)" id="ix9DmOLx3SlgNOGCcedeB"  >
<path style="stroke: rgb(36,28,28); stroke-width: 5; stroke-dasharray: none; stroke-linecap: butt; stroke-dashoffset: 0; stroke-linejoin: miter; stroke-miterlimit: 4; fill: none; fill-rule: nonzero; opacity: 1;" vector-effect="non-scaling-stroke"  transform=" translate(-372.04, -526.17)" d="M 822.04217 526.16622 L -77.95782299999996 526.16622" stroke-linecap="round" />
</g>
<g transform="matrix(-0.4 0 0 0.4 452.5 452.51)" id="GqmLanGb0hhEVoy9o8dk-"  >
<path style="stroke: none; stroke-width: 1; stroke-dasharray: none; stroke-linecap: butt; stroke-dashoffset: 0; stroke-linejoin: miter; stroke-miterlimit: 4; fill: rgb(212,0,0); fill-rule: nonzero; opacity: 1;" vector-effect="non-scaling-stroke"  transform=" translate(-421.43, -425.22)" d="M 668.57141 425.21933 C 668.57141 561.71256 557.92179 672.3621800000001 421.42856 672.3621800000001 C 284.93533 672.3621800000001 174.28571 561.71256 174.28571 425.21933000000007 C 174.28571 288.7261000000001 284.93533 178.07648000000006 421.42856 178.07648000000006 C 557.92179 178.07648000000006 668.57141 288.7261000000001 668.57141 425.21933000000007 z" stroke-linecap="round" />
</g>
<g transform="matrix(-1.52 0 0 1.52 452.51 452.51)" id="RfjXA0Lu-XwJyZySOe1x0"  >
<path style="stroke: rgb(212,0,0); stroke-width: 32.95; stroke-dasharray: none; stroke-linecap: butt; stroke-dashoffset: 0; stroke-linejoin: miter; stroke-miterlimit: 4; fill: none; fill-rule: nonzero; opacity: 1;" vector-effect="non-scaling-stroke"  transform=" translate(-421.43, -425.22)" d="M 668.57141 425.21933 C 668.57141 561.71256 557.92179 672.3621800000001 421.42856 672.3621800000001 C 284.93533 672.3621800000001 174.28571 561.71256 174.28571 425.21933000000007 C 174.28571 288.7261000000001 284.93533 178.07648000000006 421.42856 178.07648000000006 C 557.92179 178.07648000000006 668.57141 288.7261000000001 668.57141 425.21933000000007 z" stroke-linecap="round" />
</g>
<g transform="matrix(-0.71 0 0 0.71 452.49 452.51)" id="GfV0UEB-uJs9bgq4NoOgx"  >
<path style="stroke: rgb(212,0,0); stroke-width: 70.61; stroke-dasharray: none; stroke-linecap: butt; stroke-dashoffset: 0; stroke-linejoin: miter; stroke-miterlimit: 4; fill: none; fill-rule: nonzero; opacity: 1;" vector-effect="non-scaling-stroke"  transform=" translate(-421.43, -425.22)" d="M 668.57141 425.21933 C 668.57141 561.71256 557.92179 672.3621800000001 421.42856 672.3621800000001 C 284.93533 672.3621800000001 174.28571 561.71256 174.28571 425.21933000000007 C 174.28571 288.7261000000001 284.93533 178.07648000000006 421.42856 178.07648000000006 C 557.92179 178.07648000000006 668.57141 288.7261000000001 668.57141 425.21933000000007 z" stroke-linecap="round" />
</g>
<g transform="matrix(-1.11 0 0 1.11 452.48 452.5)" id="5_LX2NuqyeVxr4e7Y2K9_"  >
<path style="stroke: rgb(212,0,0); stroke-width: 44.94; stroke-dasharray: none; stroke-linecap: butt; stroke-dashoffset: 0; stroke-linejoin: miter; stroke-miterlimit: 4; fill: none; fill-rule: nonzero; opacity: 1;" vector-effect="non-scaling-stroke"  transform=" translate(-421.43, -425.22)" d="M 668.57141 425.21933 C 668.57141 561.71256 557.92179 672.3621800000001 421.42856 672.3621800000001 C 284.93533 672.3621800000001 174.28571 561.71256 174.28571 425.21933000000007 C 174.28571 288.7261000000001 284.93533 178.07648000000006 421.42856 178.07648000000006 C 557.92179 178.07648000000006 668.57141 288.7261000000001 668.57141 425.21933000000007 z" stroke-linecap="round" />
</g>
<g transform="matrix(-1 0 0 1 452.49 452.5)" id="icwl1zYg1BVLpPgvXQBXz"  >
<path style="stroke: rgb(36,28,28); stroke-width: 5; stroke-dasharray: none; stroke-linecap: butt; stroke-dashoffset: 0; stroke-linejoin: miter; stroke-miterlimit: 4; fill: none; fill-rule: nonzero; opacity: 1;" vector-effect="non-scaling-stroke"  transform=" translate(-372.05, -526.18)" d="M 372.05257 76.176698 L 372.05257 976.1754999999999" stroke-linecap="round" />
</g>
<g transform="matrix(-1 0 0 1 452.5 452.49)" id="qYVcyeJz0ItvKfXxCFqW-"  >
<path style="stroke: rgb(36,28,28); stroke-width: 5; stroke-dasharray: none; stroke-linecap: butt; stroke-dashoffset: 0; stroke-linejoin: miter; stroke-miterlimit: 4; fill: none; fill-rule: nonzero; opacity: 1;" vector-effect="non-scaling-stroke"  transform=" translate(-372.04, -526.17)" d="M 822.04217 526.16622 L -77.95782299999996 526.16622" stroke-linecap="round" />
</g>
<g transform="matrix(-0.4 0 0 0.4 452.5 452.51)" id="tZi5OM22wNgKzb18TusHV"  >
<path style="stroke: none; stroke-width: 1; stroke-dasharray: none; stroke-linecap: butt; stroke-dashoffset: 0; stroke-linejoin: miter; stroke-miterlimit: 4; fill: rgb(212,0,0); fill-rule: nonzero; opacity: 1;" vector-effect="non-scaling-stroke"  transform=" translate(-421.43, -425.22)" d="M 668.57141 425.21933 C 668.57141 561.71256 557.92179 672.3621800000001 421.42856 672.3621800000001 C 284.93533 672.3621800000001 174.28571 561.71256 174.28571 425.21933000000007 C 174.28571 288.7261000000001 284.93533 178.07648000000006 421.42856 178.07648000000006 C 557.92179 178.07648000000006 668.57141 288.7261000000001 668.57141 425.21933000000007 z" stroke-linecap="round" />
</g>
<g transform="matrix(-1.52 0 0 1.52 2452.51 452.51)" id="7tV-iRKA9VgUXMb-sGzZY"  >
<path style="stroke: rgb(212,0,0); stroke-width: 32.95; stroke-dasharray: none; stroke-linecap: butt; stroke-dashoffset: 0; stroke-linejoin: miter; stroke-miterlimit: 4; fill: none; fill-rule: nonzero; opacity: 1;" vector-effect="non-scaling-stroke"  transform=" translate(-421.43, -425.22)" d="M 668.57141 425.21933 C 668.57141 561.71256 557.92179 672.3621800000001 421.42856 672.3621800000001 C 284.93533 672.3621800000001 174.28571 561.71256 174.28571 425.21933000000007 C 174.28571 288.7261000000001 284.93533 178.07648000000006 421.42856 178.07648000000006 C 557.92179 178.07648000000006 668.57141 288.7261000000001 668.57141 425.21933000000007 z" stroke-linecap="round" />
</g>
<g transform="matrix(-0.71 0 0 0.71 2452.49 452.51)" id="6vhP1QNmLz8Jih4oTsZQZ"  >
<path style="stroke: rgb(212,0,0); stroke-width: 70.61; stroke-dasharray: none; stroke-linecap: butt; stroke-dashoffset: 0; stroke-linejoin: miter; stroke-miterlimit: 4; fill: none; fill-rule: nonzero; opacity: 1;" vector-effect="non-scaling-stroke"  transform=" translate(-421.43, -425.22)" d="M 668.57141 425.21933 C 668.57141 561.71256 557.92179 672.3621800000001 421.42856 672.3621800000001 C 284.93533 672.3621800000001 174.28571 561.71256 174.28571 425.21933000000007 C 174.28571 288.7261000000001 284.93533 178.07648000000006 421.42856 178.07648000000006 C 557.92179 178.07648000000006 668.57141 288.7261000000001 668.57141 425.21933000000007 z" stroke-linecap="round" />
</g>
<g transform="matrix(-1.11 0 0 1.11 2452.49 452.5)" id="WUY0Q1llHlcMEzHWXU89L"  >
<path style="stroke: rgb(212,0,0); stroke-width: 44.94; stroke-dasharray: none; stroke-linecap: butt; stroke-dashoffset: 0; stroke-linejoin: miter; stroke-miterlimit: 4; fill: none; fill-rule: nonzero; opacity: 1;" vector-effect="non-scaling-stroke"  transform=" translate(-421.43, -425.22)" d="M 668.57141 425.21933 C 668.57141 561.71256 557.92179 672.3621800000001 421.42856 672.3621800000001 C 284.93533 672.3621800000001 174.28571 561.71256 174.28571 425.21933000000007 C 174.28571 288.7261000000001 284.93533 178.07648000000006 421.42856 178.07648000000006 C 557.92179 178.07648000000006 668.57141 288.7261000000001 668.57141 425.21933000000007 z" stroke-linecap="round" />
</g>
<g transform="matrix(-1 0 0 1 2452.49 452.5)" id="FXkWFMXRPqU5kI0CfEemm"  >
<path style="stroke: rgb(36,28,28); stroke-width: 5; stroke-dasharray: none; stroke-linecap: butt; stroke-dashoffset: 0; stroke-linejoin: miter; stroke-miterlimit: 4; fill: none; fill-rule: nonzero; opacity: 1;" vector-effect="non-scaling-stroke"  transform=" translate(-372.05, -526.18)" d="M 372.05257 76.176698 L 372.05257 976.1754999999999" stroke-linecap="round" />
</g>
<g transform="matrix(-1 0 0 1 2452.5 452.49)" id="qt87f_GFTxi2ALxX96q2O"  >
<path style="stroke: rgb(36,28,28); stroke-width: 5; stroke-dasharray: none; stroke-linecap: butt; stroke-dashoffset: 0; stroke-linejoin: miter; stroke-miterlimit: 4; fill: none; fill-rule: nonzero; opacity: 1;" vector-effect="non-scaling-stroke"  transform=" translate(-372.04, -526.17)" d="M 822.04217 526.16622 L -77.95782299999996 526.16622" stroke-linecap="round" />
</g>
<g transform="matrix(-0.4 0 0 0.4 2452.51 452.51)" id="jOJe00DkEQSi5WgZd9X_k"  >
<path style="stroke: none; stroke-width: 1; stroke-dasharray: none; stroke-linecap: butt; stroke-dashoffset: 0; stroke-linejoin: miter; stroke-miterlimit: 4; fill: rgb(212,0,0); fill-rule: nonzero; opacity: 1;" vector-effect="non-scaling-stroke"  transform=" translate(-421.43, -425.22)" d="M 668.57141 425.21933 C 668.57141 561.71256 557.92179 672.3621800000001 421.42856 672.3621800000001 C 284.93533 672.3621800000001 174.28571 561.71256 174.28571 425.21933000000007 C 174.28571 288.7261000000001 284.93533 178.07648000000006 421.42856 178.07648000000006 C 557.92179 178.07648000000006 668.57141 288.7261000000001 668.57141 425.21933000000007 z" stroke-linecap="round" />
</g>
<g transform="matrix(-1.49 0 0 1.49 644.22 368.94)" id="bWMSVM0K4kPuIiRnJ1t10"  >
<path style="stroke: none; stroke-width: 1; stroke-dasharray: none; stroke-linecap: butt; stroke-dashoffset: 0; stroke-linejoin: miter; stroke-miterlimit: 4; fill: rgb(0,0,0); fill-rule: nonzero; opacity: 1;" vector-effect="non-scaling-stroke"  transform=" translate(609.71, -983.56)" d="M -588.00778 983.56458 C -588.00778 995.55191 -597.72544 1005.2696 -609.71277 1005.2696 C -621.7001 1005.2696 -631.41775 995.55191 -631.41775 983.56458 C -631.41775 971.57724 -621.7000999999999 961.85959 -609.71277 961.85959 C -597.7254399999999 961.85959 -588.00778 971.5772400000001 -588.00778 983.56458 z" stroke-linecap="round" />
</g>
<g transform="matrix(-0.93 0 0 0.93 644.78 261.78)" id="TFVdFPPeTqNQpRGL_qk5c"  >
<path style="stroke: none; stroke-width: 1; stroke-dasharray: none; stroke-linecap: butt; stroke-dashoffset: 0; stroke-linejoin: miter; stroke-miterlimit: 4; fill: rgb(0,0,0); fill-rule: nonzero; opacity: 1;" vector-effect="non-scaling-stroke"  transform=" translate(609.71, -983.56)" d="M -588.00778 983.56458 C -588.00778 995.55191 -597.72544 1005.2696 -609.71277 1005.2696 C -621.7001 1005.2696 -631.41775 995.55191 -631.41775 983.56458 C -631.41775 971.57724 -621.7000999999999 961.85959 -609.71277 961.85959 C -597.7254399999999 961.85959 -588.00778 971.5772400000001 -588.00778 983.56458 z" stroke-linecap="round" />
</g>
<g transform="matrix(-0.9 0 0 0.9 584.91 217.84)" id="zLFQqT4ODHluKPYoz8CvD"  >
<path style="stroke: none; stroke-width: 1; stroke-dasharray: none; stroke-linecap: butt; stroke-dashoffset: 0; stroke-linejoin: miter; stroke-miterlimit: 4; fill: rgb(0,0,0); fill-rule: nonzero; opacity: 1;" vector-effect="non-scaling-stroke"  transform=" translate(609.71, -983.56)" d="M -588.00778 983.56458 C -588.00778 995.55191 -597.72544 1005.2696 -609.71277 1005.2696 C -621.7001 1005.2696 -631.41775 995.55191 -631.41775 983.56458 C -631.41775 971.57724 -621.7000999999999 961.85959 -609.71277 961.85959 C -597.7254399999999 961.85959 -588.00778 971.5772400000001 -588.00778 983.56458 z" stroke-linecap="round" />
</g>
<g transform="matrix(-1.07 0 0 1.07 694.91 300.74)" id="-bwaJJiirZkj4kGqo-YSQ"  >
<path style="stroke: none; stroke-width: 1; stroke-dasharray: none; stroke-linecap: butt; stroke-dashoffset: 0; stroke-linejoin: miter; stroke-miterlimit: 4; fill: rgb(0,0,0); fill-rule: nonzero; opacity: 1;" vector-effect="non-scaling-stroke"  transform=" translate(609.71, -983.56)" d="M -588.00778 983.56458 C -588.00778 995.55191 -597.72544 1005.2696 -609.71277 1005.2696 C -621.7001 1005.2696 -631.41775 995.55191 -631.41775 983.56458 C -631.41775 971.57724 -621.7000999999999 961.85959 -609.71277 961.85959 C -597.7254399999999 961.85959 -588.00778 971.5772400000001 -588.00778 983.56458 z" stroke-linecap="round" />
</g>
<g transform="matrix(-0.86 0 0 0.86 522.95 230.65)" id="T1bPZYuHly4Xg4e5Fo4l8"  >
<path style="stroke: none; stroke-width: 1; stroke-dasharray: none; stroke-linecap: butt; stroke-dashoffset: 0; stroke-linejoin: miter; stroke-miterlimit: 4; fill: rgb(0,0,0); fill-rule: nonzero; opacity: 1;" vector-effect="non-scaling-stroke"  transform=" translate(609.71, -983.56)" d="M -588.00778 983.56458 C -588.00778 995.55191 -597.72544 1005.2696 -609.71277 1005.2696 C -621.7001 1005.2696 -631.41775 995.55191 -631.41775 983.56458 C -631.41775 971.57724 -621.7000999999999 961.85959 -609.71277 961.85959 C -597.7254399999999 961.85959 -588.00778 971.5772400000001 -588.00778 983.56458 z" stroke-linecap="round" />
</g>
<g transform="matrix(-1.19 0 0 1.19 439.76 235.43)" id="8ysZYN9Cs-4Sy2cMZ18UW"  >
<path style="stroke: none; stroke-width: 1; stroke-dasharray: none; stroke-linecap: butt; stroke-dashoffset: 0; stroke-linejoin: miter; stroke-miterlimit: 4; fill: rgb(0,0,0); fill-rule: nonzero; opacity: 1;" vector-effect="non-scaling-stroke"  transform=" translate(609.71, -983.56)" d="M -588.00778 983.56458 C -588.00778 995.55191 -597.72544 1005.2696 -609.71277 1005.2696 C -621.7001 1005.2696 -631.41775 995.55191 -631.41775 983.56458 C -631.41775 971.57724 -621.7000999999999 961.85959 -609.71277 961.85959 C -597.7254399999999 961.85959 -588.00778 971.5772400000001 -588.00778 983.56458 z" stroke-linecap="round" />
</g>
<g transform="matrix(-0.64 0 0 0.64 303.32 328.91)" id="qPzezSt9GUkcbcM5CR9Fm"  >
<path style="stroke: none; stroke-width: 1; stroke-dasharray: none; stroke-linecap: butt; stroke-dashoffset: 0; stroke-linejoin: miter; stroke-miterlimit: 4; fill: rgb(0,0,0); fill-rule: nonzero; opacity: 1;" vector-effect="non-scaling-stroke"  transform=" translate(609.71, -983.56)" d="M -588.00778 983.56458 C -588.00778 995.55191 -597.72544 1005.2696 -609.71277 1005.2696 C -621.7001 1005.2696 -631.41775 995.55191 -631.41775 983.56458 C -631.41775 971.57724 -621.7000999999999 961.85959 -609.71277 961.85959 C -597.7254399999999 961.85959 -588.00778 971.5772400000001 -588.00778 983.56458 z" stroke-linecap="round" />
</g>
<g transform="matrix(-1.29 0 0 1.29 87.09 631.61)" id="HMRWIY6YTQiv2Sum0C7ZM"  >
<path style="stroke: none; stroke-width: 1; stroke-dasharray: none; stroke-linecap: butt; stroke-dashoffset: 0; stroke-linejoin: miter; stroke-miterlimit: 4; fill: rgb(0,0,0); fill-rule: nonzero; opacity: 1;" vector-effect="non-scaling-stroke"  transform=" translate(609.71, -983.56)" d="M -588.00778 983.56458 C -588.00778 995.55191 -597.72544 1005.2696 -609.71277 1005.2696 C -621.7001 1005.2696 -631.41775 995.55191 -631.41775 983.56458 C -631.41775 971.57724 -621.7000999999999 961.85959 -609.71277 961.85959 C -597.7254399999999 961.85959 -588.00778 971.5772400000001 -588.00778 983.56458 z" stroke-linecap="round" />
</g>
<g transform="matrix(-1.06 0 0 1.06 161.26 564.94)" id="fkZboc7f2lDkTXR8umBtO"  >
<path style="stroke: none; stroke-width: 1; stroke-dasharray: none; stroke-linecap: butt; stroke-dashoffset: 0; stroke-linejoin: miter; stroke-miterlimit: 4; fill: rgb(0,0,0); fill-rule: nonzero; opacity: 1;" vector-effect="non-scaling-stroke"  transform=" translate(609.71, -983.56)" d="M -588.00778 983.56458 C -588.00778 995.55191 -597.72544 1005.2696 -609.71277 1005.2696 C -621.7001 1005.2696 -631.41775 995.55191 -631.41775 983.56458 C -631.41775 971.57724 -621.7000999999999 961.85959 -609.71277 961.85959 C -597.7254399999999 961.85959 -588.00778 971.5772400000001 -588.00778 983.56458 z" stroke-linecap="round" />
</g>
<g transform="matrix(-1.26 0 0 1.26 130.69 790.49)" id="SqiXU_dF1f2pA9h1e2qF7"  >
<path style="stroke: none; stroke-width: 1; stroke-dasharray: none; stroke-linecap: butt; stroke-dashoffset: 0; stroke-linejoin: miter; stroke-miterlimit: 4; fill: rgb(0,0,0); fill-rule: nonzero; opacity: 1;" vector-effect="non-scaling-stroke"  transform=" translate(609.71, -983.56)" d="M -588.00778 983.56458 C -588.00778 995.55191 -597.72544 1005.2696 -609.71277 1005.2696 C -621.7001 1005.2696 -631.41775 995.55191 -631.41775 983.56458 C -631.41775 971.57724 -621.7000999999999 961.85959 -609.71277 961.85959 C -597.7254399999999 961.85959 -588.00778 971.5772400000001 -588.00778 983.56458 z" stroke-linecap="round" />
</g>
<g transform="matrix(-1.23 0 0 1.23 69.81 458.42)" id="6iO5GhJs08nTVia5CykXp"  >
<path style="stroke: none; stroke-width: 1; stroke-dasharray: none; stroke-linecap: butt; stroke-dashoffset: 0; stroke-linejoin: miter; stroke-miterlimit: 4; fill: rgb(0,0,0); fill-rule: nonzero; opacity: 1;" vector-effect="non-scaling-stroke"  transform=" translate(609.71, -983.56)" d="M -588.00778 983.56458 C -588.00778 995.55191 -597.72544 1005.2696 -609.71277 1005.2696 C -621.7001 1005.2696 -631.41775 995.55191 -631.41775 983.56458 C -631.41775 971.57724 -621.7000999999999 961.85959 -609.71277 961.85959 C -597.7254399999999 961.85959 -588.00778 971.5772400000001 -588.00778 983.56458 z" stroke-linecap="round" />
</g>
<g transform="matrix(-0.84 0 0 0.84 222.06 798.64)" id="t6mt1aYRjib-opzaaC0oY"  >
<path style="stroke: none; stroke-width: 1; stroke-dasharray: none; stroke-linecap: butt; stroke-dashoffset: 0; stroke-linejoin: miter; stroke-miterlimit: 4; fill: rgb(0,0,0); fill-rule: nonzero; opacity: 1;" vector-effect="non-scaling-stroke"  transform=" translate(609.71, -983.56)" d="M -588.00778 983.56458 C -588.00778 995.55191 -597.72544 1005.2696 -609.71277 1005.2696 C -621.7001 1005.2696 -631.41775 995.55191 -631.41775 983.56458 C -631.41775 971.57724 -621.7000999999999 961.85959 -609.71277 961.85959 C -597.7254399999999 961.85959 -588.00778 971.5772400000001 -588.00778 983.56458 z" stroke-linecap="round" />
</g>
<g transform="matrix(-1.01 0 0 1.01 426.24 729.34)" id="nDSC_Ix9H7CU60eGgmvmu"  >
<path style="stroke: none; stroke-width: 1; stroke-dasharray: none; stroke-linecap: butt; stroke-dashoffset: 0; stroke-linejoin: miter; stroke-miterlimit: 4; fill: rgb(0,0,0); fill-rule: nonzero; opacity: 1;" vector-effect="non-scaling-stroke"  transform=" translate(609.71, -983.56)" d="M -588.00778 983.56458 C -588.00778 995.55191 -597.72544 1005.2696 -609.71277 1005.2696 C -621.7001 1005.2696 -631.41775 995.55191 -631.41775 983.56458 C -631.41775 971.57724 -621.7000999999999 961.85959 -609.71277 961.85959 C -597.7254399999999 961.85959 -588.00778 971.5772400000001 -588.00778 983.56458 z" stroke-linecap="round" />
</g>
<g transform="matrix(-0.62 0 0 0.62 274.28 700.62)" id="h87MKUYxyB1vK1hUqJuiF"  >
<path style="stroke: none; stroke-width: 1; stroke-dasharray: none; stroke-linecap: butt; stroke-dashoffset: 0; stroke-linejoin: miter; stroke-miterlimit: 4; fill: rgb(0,0,0); fill-rule: nonzero; opacity: 1;" vector-effect="non-scaling-stroke"  transform=" translate(609.71, -983.56)" d="M -588.00778 983.56458 C -588.00778 995.55191 -597.72544 1005.2696 -609.71277 1005.2696 C -621.7001 1005.2696 -631.41775 995.55191 -631.41775 983.56458 C -631.41775 971.57724 -621.7000999999999 961.85959 -609.71277 961.85959 C -597.7254399999999 961.85959 -588.00778 971.5772400000001 -588.00778 983.56458 z" stroke-linecap="round" />
</g>
<g transform="matrix(-0.57 0 0 0.57 483.15 649.1)" id="qAvafyayD-BMv5s41TnqR"  >
<path style="stroke: none; stroke-width: 1; stroke-dasharray: none; stroke-linecap: butt; stroke-dashoffset: 0; stroke-linejoin: miter; stroke-miterlimit: 4; fill: rgb(0,0,0); fill-rule: nonzero; opacity: 1;" vector-effect="non-scaling-stroke"  transform=" translate(609.71, -983.56)" d="M -588.00778 983.56458 C -588.00778 995.55191 -597.72544 1005.2696 -609.71277 1005.2696 C -621.7001 1005.2696 -631.41775 995.55191 -631.41775 983.56458 C -631.41775 971.57724 -621.7000999999999 961.85959 -609.71277 961.85959 C -597.7254399999999 961.85959 -588.00778 971.5772400000001 -588.00778 983.56458 z" stroke-linecap="round" />
</g>
<g transform="matrix(-0.63 0 0 0.63 337.2 728.23)" id="fWFzLnY9fOoIqtEJ5fk8O"  >
<path style="stroke: none; stroke-width: 1; stroke-dasharray: none; stroke-linecap: butt; stroke-dashoffset: 0; stroke-linejoin: miter; stroke-miterlimit: 4; fill: rgb(0,0,0); fill-rule: nonzero; opacity: 1;" vector-effect="non-scaling-stroke"  transform=" translate(609.71, -983.56)" d="M -588.00778 983.56458 C -588.00778 995.55191 -597.72544 1005.2696 -609.71277 1005.2696 C -621.7001 1005.2696 -631.41775 995.55191 -631.41775 983.56458 C -631.41775 971.57724 -621.7000999999999 961.85959 -609.71277 961.85959 C -597.7254399999999 961.85959 -588.00778 971.5772400000001 -588.00778 983.56458 z" stroke-linecap="round" />
</g>
<g transform="matrix(-0.63 0 0 0.63 470.64 769.55)" id="m3A1NuMYK1rPEAvWX8vUM"  >
<path style="stroke: none; stroke-width: 1; stroke-dasharray: none; stroke-linecap: butt; stroke-dashoffset: 0; stroke-linejoin: miter; stroke-miterlimit: 4; fill: rgb(0,0,0); fill-rule: nonzero; opacity: 1;" vector-effect="non-scaling-stroke"  transform=" translate(609.71, -983.56)" d="M -588.00778 983.56458 C -588.00778 995.55191 -597.72544 1005.2696 -609.71277 1005.2696 C -621.7001 1005.2696 -631.41775 995.55191 -631.41775 983.56458 C -631.41775 971.57724 -621.7000999999999 961.85959 -609.71277 961.85959 C -597.7254399999999 961.85959 -588.00778 971.5772400000001 -588.00778 983.56458 z" stroke-linecap="round" />
</g>
<g transform="matrix(-0.58 0 0 0.58 535.58 718.71)" id="V1aCeZTLsQ4jGY8Y-oTNP"  >
<path style="stroke: none; stroke-width: 1; stroke-dasharray: none; stroke-linecap: butt; stroke-dashoffset: 0; stroke-linejoin: miter; stroke-miterlimit: 4; fill: rgb(0,0,0); fill-rule: nonzero; opacity: 1;" vector-effect="non-scaling-stroke"  transform=" translate(609.71, -983.56)" d="M -588.00778 983.56458 C -588.00778 995.55191 -597.72544 1005.2696 -609.71277 1005.2696 C -621.7001 1005.2696 -631.41775 995.55191 -631.41775 983.56458 C -631.41775 971.57724 -621.7000999999999 961.85959 -609.71277 961.85959 C -597.7254399999999 961.85959 -588.00778 971.5772400000001 -588.00778 983.56458 z" stroke-linecap="round" />
</g>
<g transform="matrix(-0.56 0 0 0.56 279.72 594.06)" id="M3pARkiaZYL9xzRGb8JDp"  >
<path style="stroke: none; stroke-width: 1; stroke-dasharray: none; stroke-linecap: butt; stroke-dashoffset: 0; stroke-linejoin: miter; stroke-miterlimit: 4; fill: rgb(0,0,0); fill-rule: nonzero; opacity: 1;" vector-effect="non-scaling-stroke"  transform=" translate(609.71, -983.56)" d="M -588.00778 983.56458 C -588.00778 995.55191 -597.72544 1005.2696 -609.71277 1005.2696 C -621.7001 1005.2696 -631.41775 995.55191 -631.41775 983.56458 C -631.41775 971.57724 -621.7000999999999 961.85959 -609.71277 961.85959 C -597.7254399999999 961.85959 -588.00778 971.5772400000001 -588.00778 983.56458 z" stroke-linecap="round" />
</g>
<g transform="matrix(-1.34 0 0 1.34 590.91 603.99)" id="thaOK288SqFEbO9wyn_Ni"  >
<path style="stroke: none; stroke-width: 1; stroke-dasharray: none; stroke-linecap: butt; stroke-dashoffset: 0; stroke-linejoin: miter; stroke-miterlimit: 4; fill: rgb(0,0,0); fill-rule: nonzero; opacity: 1;" vector-effect="non-scaling-stroke"  transform=" translate(609.71, -983.56)" d="M -588.00778 983.56458 C -588.00778 995.55191 -597.72544 1005.2696 -609.71277 1005.2696 C -621.7001 1005.2696 -631.41775 995.55191 -631.41775 983.56458 C -631.41775 971.57724 -621.7000999999999 961.85959 -609.71277 961.85959 C -597.7254399999999 961.85959 -588.00778 971.5772400000001 -588.00778 983.56458 z" stroke-linecap="round" />
</g>
<g transform="matrix(-0.57 0 0 0.57 420.82 622.66)" id="EWsERDZyM5WPJhu842a8l"  >
<path style="stroke: none; stroke-width: 1; stroke-dasharray: none; stroke-linecap: butt; stroke-dashoffset: 0; stroke-linejoin: miter; stroke-miterlimit: 4; fill: rgb(0,0,0); fill-rule: nonzero; opacity: 1;" vector-effect="non-scaling-stroke"  transform=" translate(609.71, -983.56)" d="M -588.00778 983.56458 C -588.00778 995.55191 -597.72544 1005.2696 -609.71277 1005.2696 C -621.7001 1005.2696 -631.41775 995.55191 -631.41775 983.56458 C -631.41775 971.57724 -621.7000999999999 961.85959 -609.71277 961.85959 C -597.7254399999999 961.85959 -588.00778 971.5772400000001 -588.00778 983.56458 z" stroke-linecap="round" />
</g>
<g transform="matrix(-0.82 0 0 0.82 502.31 466.56)" id="kXLBpy_ps3hVZQ5RPngN8"  >
<path style="stroke: none; stroke-width: 1; stroke-dasharray: none; stroke-linecap: butt; stroke-dashoffset: 0; stroke-linejoin: miter; stroke-miterlimit: 4; fill: rgb(0,0,0); fill-rule: nonzero; opacity: 1;" vector-effect="non-scaling-stroke"  transform=" translate(609.71, -983.56)" d="M -588.00778 983.56458 C -588.00778 995.55191 -597.72544 1005.2696 -609.71277 1005.2696 C -621.7001 1005.2696 -631.41775 995.55191 -631.41775 983.56458 C -631.41775 971.57724 -621.7000999999999 961.85959 -609.71277 961.85959 C -597.7254399999999 961.85959 -588.00778 971.5772400000001 -588.00778 983.56458 z" stroke-linecap="round" />
</g>
<g transform="matrix(-0.61 0 0 0.61 622.49 489.49)" id="xKB9ujKkXq4Fxu9345cYh"  >
<path style="stroke: none; stroke-width: 1; stroke-dasharray: none; stroke-linecap: butt; stroke-dashoffset: 0; stroke-linejoin: miter; stroke-miterlimit: 4; fill: rgb(0,0,0); fill-rule: nonzero; opacity: 1;" vector-effect="non-scaling-stroke"  transform=" translate(609.71, -983.56)" d="M -588.00778 983.56458 C -588.00778 995.55191 -597.72544 1005.2696 -609.71277 1005.2696 C -621.7001 1005.2696 -631.41775 995.55191 -631.41775 983.56458 C -631.41775 971.57724 -621.7000999999999 961.85959 -609.71277 961.85959 C -597.7254399999999 961.85959 -588.00778 971.5772400000001 -588.00778 983.56458 z" stroke-linecap="round" />
</g>
<g transform="matrix(-1.01 0 0 1.01 2269.42 380.66)" id="wiOicrKRj9Y2LpJHZGLWs"  >
<path style="stroke: none; stroke-width: 1; stroke-dasharray: none; stroke-linecap: butt; stroke-dashoffset: 0; stroke-linejoin: miter; stroke-miterlimit: 4; fill: rgb(0,0,0); fill-rule: nonzero; opacity: 1;" vector-effect="non-scaling-stroke"  transform=" translate(609.71, -983.56)" d="M -588.00778 983.56458 C -588.00778 995.55191 -597.72544 1005.2696 -609.71277 1005.2696 C -621.7001 1005.2696 -631.41775 995.55191 -631.41775 983.56458 C -631.41775 971.57724 -621.7000999999999 961.85959 -609.71277 961.85959 C -597.7254399999999 961.85959 -588.00778 971.5772400000001 -588.00778 983.56458 z" stroke-linecap="round" />
</g>
<g transform="matrix(-0.49 0 0 0.49 2337.35 320.36)" id="k7whH15PpzxGHipNvZyKM"  >
<path style="stroke: none; stroke-width: 1; stroke-dasharray: none; stroke-linecap: butt; stroke-dashoffset: 0; stroke-linejoin: miter; stroke-miterlimit: 4; fill: rgb(0,0,0); fill-rule: nonzero; opacity: 1;" vector-effect="non-scaling-stroke"  transform=" translate(609.71, -983.56)" d="M -588.00778 983.56458 C -588.00778 995.55191 -597.72544 1005.2696 -609.71277 1005.2696 C -621.7001 1005.2696 -631.41775 995.55191 -631.41775 983.56458 C -631.41775 971.57724 -621.7000999999999 961.85959 -609.71277 961.85959 C -597.7254399999999 961.85959 -588.00778 971.5772400000001 -588.00778 983.56458 z" stroke-linecap="round" />
</g>
<g transform="matrix(-0.61 0 0 0.61 2144.21 247.62)" id="yhr3ZEKAlrz-cMCW3KScD"  >
<path style="stroke: none; stroke-width: 1; stroke-dasharray: none; stroke-linecap: butt; stroke-dashoffset: 0; stroke-linejoin: miter; stroke-miterlimit: 4; fill: rgb(0,0,0); fill-rule: nonzero; opacity: 1;" vector-effect="non-scaling-stroke"  transform=" translate(609.71, -983.56)" d="M -588.00778 983.56458 C -588.00778 995.55191 -597.72544 1005.2696 -609.71277 1005.2696 C -621.7001 1005.2696 -631.41775 995.55191 -631.41775 983.56458 C -631.41775 971.57724 -621.7000999999999 961.85959 -609.71277 961.85959 C -597.7254399999999 961.85959 -588.00778 971.5772400000001 -588.00778 983.56458 z" stroke-linecap="round" />
</g>
<g transform="matrix(-1.48 0 0 1.48 2388.5 50.06)" id="RukLb9vZF9VJ47oCRrXmI"  >
<path style="stroke: none; stroke-width: 1; stroke-dasharray: none; stroke-linecap: butt; stroke-dashoffset: 0; stroke-linejoin: miter; stroke-miterlimit: 4; fill: rgb(0,0,0); fill-rule: nonzero; opacity: 1;" vector-effect="non-scaling-stroke"  transform=" translate(609.71, -983.56)" d="M -588.00778 983.56458 C -588.00778 995.55191 -597.72544 1005.2696 -609.71277 1005.2696 C -621.7001 1005.2696 -631.41775 995.55191 -631.41775 983.56458 C -631.41775 971.57724 -621.7000999999999 961.85959 -609.71277 961.85959 C -597.7254399999999 961.85959 -588.00778 971.5772400000001 -588.00778 983.56458 z" stroke-linecap="round" />
</g>
<g transform="matrix(-0.98 0 0 0.98 2354.41 183.03)" id="m0J_w3BS3eLE0jtmj1QHE"  >
<path style="stroke: none; stroke-width: 1; stroke-dasharray: none; stroke-linecap: butt; stroke-dashoffset: 0; stroke-linejoin: miter; stroke-miterlimit: 4; fill: rgb(0,0,0); fill-rule: nonzero; opacity: 1;" vector-effect="non-scaling-stroke"  transform=" translate(609.71, -983.56)" d="M -588.00778 983.56458 C -588.00778 995.55191 -597.72544 1005.2696 -609.71277 1005.2696 C -621.7001 1005.2696 -631.41775 995.55191 -631.41775 983.56458 C -631.41775 971.57724 -621.7000999999999 961.85959 -609.71277 961.85959 C -597.7254399999999 961.85959 -588.00778 971.5772400000001 -588.00778 983.56458 z" stroke-linecap="round" />
</g>
<g transform="matrix(-0.61 0 0 0.61 2358.53 88.81)" id="sdVCmLiAPBBcuvBMLLD3F"  >
<path style="stroke: none; stroke-width: 1; stroke-dasharray: none; stroke-linecap: butt; stroke-dashoffset: 0; stroke-linejoin: miter; stroke-miterlimit: 4; fill: rgb(0,0,0); fill-rule: nonzero; opacity: 1;" vector-effect="non-scaling-stroke"  transform=" translate(609.71, -983.56)" d="M -588.00778 983.56458 C -588.00778 995.55191 -597.72544 1005.2696 -609.71277 1005.2696 C -621.7001 1005.2696 -631.41775 995.55191 -631.41775 983.56458 C -631.41775 971.57724 -621.7000999999999 961.85959 -609.71277 961.85959 C -597.7254399999999 961.85959 -588.00778 971.5772400000001 -588.00778 983.56458 z" stroke-linecap="round" />
</g>
<g transform="matrix(-1.09 0 0 1.09 2167.69 441.04)" id="A1O5EEEkpGSGSAqg59OTn"  >
<path style="stroke: none; stroke-width: 1; stroke-dasharray: none; stroke-linecap: butt; stroke-dashoffset: 0; stroke-linejoin: miter; stroke-miterlimit: 4; fill: rgb(0,0,0); fill-rule: nonzero; opacity: 1;" vector-effect="non-scaling-stroke"  transform=" translate(609.71, -983.56)" d="M -588.00778 983.56458 C -588.00778 995.55191 -597.72544 1005.2696 -609.71277 1005.2696 C -621.7001 1005.2696 -631.41775 995.55191 -631.41775 983.56458 C -631.41775 971.57724 -621.7000999999999 961.85959 -609.71277 961.85959 C -597.7254399999999 961.85959 -588.00778 971.5772400000001 -588.00778 983.56458 z" stroke-linecap="round" />
</g>
<g transform="matrix(-0.68 0 0 0.68 2319.85 267.48)" id="3yb7npx0qUh5kv1nxKaHb"  >
<path style="stroke: none; stroke-width: 1; stroke-dasharray: none; stroke-linecap: butt; stroke-dashoffset: 0; stroke-linejoin: miter; stroke-miterlimit: 4; fill: rgb(0,0,0); fill-rule: nonzero; opacity: 1;" vector-effect="non-scaling-stroke"  transform=" translate(609.71, -983.56)" d="M -588.00778 983.56458 C -588.00778 995.55191 -597.72544 1005.2696 -609.71277 1005.2696 C -621.7001 1005.2696 -631.41775 995.55191 -631.41775 983.56458 C -631.41775 971.57724 -621.7000999999999 961.85959 -609.71277 961.85959 C -597.7254399999999 961.85959 -588.00778 971.5772400000001 -588.00778 983.56458 z" stroke-linecap="round" />
</g>
<g transform="matrix(-0.82 0 0 0.82 2272.06 190.76)" id="FI1eEkBItSiVAyW_lMMQR"  >
<path style="stroke: none; stroke-width: 1; stroke-dasharray: none; stroke-linecap: butt; stroke-dashoffset: 0; stroke-linejoin: miter; stroke-miterlimit: 4; fill: rgb(0,0,0); fill-rule: nonzero; opacity: 1;" vector-effect="non-scaling-stroke"  transform=" translate(609.71, -983.56)" d="M -588.00778 983.56458 C -588.00778 995.55191 -597.72544 1005.2696 -609.71277 1005.2696 C -621.7001 1005.2696 -631.41775 995.55191 -631.41775 983.56458 C -631.41775 971.57724 -621.7000999999999 961.85959 -609.71277 961.85959 C -597.7254399999999 961.85959 -588.00778 971.5772400000001 -588.00778 983.56458 z" stroke-linecap="round" />
</g>
<g transform="matrix(-0.79 0 0 0.79 2276.35 313.89)" id="21Qzk2iQ22O4Cng4NHqi8"  >
<path style="stroke: none; stroke-width: 1; stroke-dasharray: none; stroke-linecap: butt; stroke-dashoffset: 0; stroke-linejoin: miter; stroke-miterlimit: 4; fill: rgb(0,0,0); fill-rule: nonzero; opacity: 1;" vector-effect="non-scaling-stroke"  transform=" translate(609.71, -983.56)" d="M -588.00778 983.56458 C -588.00778 995.55191 -597.72544 1005.2696 -609.71277 1005.2696 C -621.7001 1005.2696 -631.41775 995.55191 -631.41775 983.56458 C -631.41775 971.57724 -621.7000999999999 961.85959 -609.71277 961.85959 C -597.7254399999999 961.85959 -588.00778 971.5772400000001 -588.00778 983.56458 z" stroke-linecap="round" />
</g>
<g transform="matrix(-1.19 0 0 1.19 2122.96 363.57)" id="Fdggt3z6bpiAL1gzPdXGx"  >
<path style="stroke: none; stroke-width: 1; stroke-dasharray: none; stroke-linecap: butt; stroke-dashoffset: 0; stroke-linejoin: miter; stroke-miterlimit: 4; fill: rgb(0,0,0); fill-rule: nonzero; opacity: 1;" vector-effect="non-scaling-stroke"  transform=" translate(609.71, -983.56)" d="M -588.00778 983.56458 C -588.00778 995.55191 -597.72544 1005.2696 -609.71277 1005.2696 C -621.7001 1005.2696 -631.41775 995.55191 -631.41775 983.56458 C -631.41775 971.57724 -621.7000999999999 961.85959 -609.71277 961.85959 C -597.7254399999999 961.85959 -588.00778 971.5772400000001 -588.00778 983.56458 z" stroke-linecap="round" />
</g>
<g transform="matrix(-0.48 0 0 0.48 2200.2 346.73)" id="VhIrsvlnn7LcPuRxGStD4"  >
<path style="stroke: none; stroke-width: 1; stroke-dasharray: none; stroke-linecap: butt; stroke-dashoffset: 0; stroke-linejoin: miter; stroke-miterlimit: 4; fill: rgb(0,0,0); fill-rule: nonzero; opacity: 1;" vector-effect="non-scaling-stroke"  transform=" translate(609.71, -983.56)" d="M -588.00778 983.56458 C -588.00778 995.55191 -597.72544 1005.2696 -609.71277 1005.2696 C -621.7001 1005.2696 -631.41775 995.55191 -631.41775 983.56458 C -631.41775 971.57724 -621.7000999999999 961.85959 -609.71277 961.85959 C -597.7254399999999 961.85959 -588.00778 971.5772400000001 -588.00778 983.56458 z" stroke-linecap="round" />
</g>
<g transform="matrix(-0.8 0 0 0.8 2164.4 325.42)" id="gG65eVCCgXfIE832Z_fo9"  >
<path style="stroke: none; stroke-width: 1; stroke-dasharray: none; stroke-linecap: butt; stroke-dashoffset: 0; stroke-linejoin: miter; stroke-miterlimit: 4; fill: rgb(0,0,0); fill-rule: nonzero; opacity: 1;" vector-effect="non-scaling-stroke"  transform=" translate(609.71, -983.56)" d="M -588.00778 983.56458 C -588.00778 995.55191 -597.72544 1005.2696 -609.71277 1005.2696 C -621.7001 1005.2696 -631.41775 995.55191 -631.41775 983.56458 C -631.41775 971.57724 -621.7000999999999 961.85959 -609.71277 961.85959 C -597.7254399999999 961.85959 -588.00778 971.5772400000001 -588.00778 983.56458 z" stroke-linecap="round" />
</g>
<g transform="matrix(-0.78 0 0 0.78 2237.95 270.21)" id="6OBE_N_sHu2h764LeZvYo"  >
<path style="stroke: none; stroke-width: 1; stroke-dasharray: none; stroke-linecap: butt; stroke-dashoffset: 0; stroke-linejoin: miter; stroke-miterlimit: 4; fill: rgb(0,0,0); fill-rule: nonzero; opacity: 1;" vector-effect="non-scaling-stroke"  transform=" translate(609.71, -983.56)" d="M -588.00778 983.56458 C -588.00778 995.55191 -597.72544 1005.2696 -609.71277 1005.2696 C -621.7001 1005.2696 -631.41775 995.55191 -631.41775 983.56458 C -631.41775 971.57724 -621.7000999999999 961.85959 -609.71277 961.85959 C -597.7254399999999 961.85959 -588.00778 971.5772400000001 -588.00778 983.56458 z" stroke-linecap="round" />
</g>
<g transform="matrix(-1.25 0 0 1.25 2259.54 103.61)" id="I0nPxNrMHZLWyIGX9ziKR"  >
<path style="stroke: none; stroke-width: 1; stroke-dasharray: none; stroke-linecap: butt; stroke-dashoffset: 0; stroke-linejoin: miter; stroke-miterlimit: 4; fill: rgb(0,0,0); fill-rule: nonzero; opacity: 1;" vector-effect="non-scaling-stroke"  transform=" translate(609.71, -983.56)" d="M -588.00778 983.56458 C -588.00778 995.55191 -597.72544 1005.2696 -609.71277 1005.2696 C -621.7001 1005.2696 -631.41775 995.55191 -631.41775 983.56458 C -631.41775 971.57724 -621.7000999999999 961.85959 -609.71277 961.85959 C -597.7254399999999 961.85959 -588.00778 971.5772400000001 -588.00778 983.56458 z" stroke-linecap="round" />
</g>
<g transform="matrix(-0.51 0 0 0.51 2162.23 204.19)" id="rkcLAnZC04RZUu1bR44yj"  >
<path style="stroke: none; stroke-width: 1; stroke-dasharray: none; stroke-linecap: butt; stroke-dashoffset: 0; stroke-linejoin: miter; stroke-miterlimit: 4; fill: rgb(0,0,0); fill-rule: nonzero; opacity: 1;" vector-effect="non-scaling-stroke"  transform=" translate(609.71, -983.56)" d="M -588.00778 983.56458 C -588.00778 995.55191 -597.72544 1005.2696 -609.71277 1005.2696 C -621.7001 1005.2696 -631.41775 995.55191 -631.41775 983.56458 C -631.41775 971.57724 -621.7000999999999 961.85959 -609.71277 961.85959 C -597.7254399999999 961.85959 -588.00778 971.5772400000001 -588.00778 983.56458 z" stroke-linecap="round" />
</g>
<g transform="matrix(-0.58 0 0 0.58 2219.4 148.58)" id="jylRzAv23MSFumAqCXYJD"  >
<path style="stroke: none; stroke-width: 1; stroke-dasharray: none; stroke-linecap: butt; stroke-dashoffset: 0; stroke-linejoin: miter; stroke-miterlimit: 4; fill: rgb(0,0,0); fill-rule: nonzero; opacity: 1;" vector-effect="non-scaling-stroke"  transform=" translate(609.71, -983.56)" d="M -588.00778 983.56458 C -588.00778 995.55191 -597.72544 1005.2696 -609.71277 1005.2696 C -621.7001 1005.2696 -631.41775 995.55191 -631.41775 983.56458 C -631.41775 971.57724 -621.7000999999999 961.85959 -609.71277 961.85959 C -597.7254399999999 961.85959 -588.00778 971.5772400000001 -588.00778 983.56458 z" stroke-linecap="round" />
</g>
<g transform="matrix(-1.05 0 0 1.05 2119.8 125.54)" id="nkjUDz-6lbzOg5magSshq"  >
<path style="stroke: none; stroke-width: 1; stroke-dasharray: none; stroke-linecap: butt; stroke-dashoffset: 0; stroke-linejoin: miter; stroke-miterlimit: 4; fill: rgb(0,0,0); fill-rule: nonzero; opacity: 1;" vector-effect="non-scaling-stroke"  transform=" translate(609.71, -983.56)" d="M -588.00778 983.56458 C -588.00778 995.55191 -597.72544 1005.2696 -609.71277 1005.2696 C -621.7001 1005.2696 -631.41775 995.55191 -631.41775 983.56458 C -631.41775 971.57724 -621.7000999999999 961.85959 -609.71277 961.85959 C -597.7254399999999 961.85959 -588.00778 971.5772400000001 -588.00778 983.56458 z" stroke-linecap="round" />
</g>
<g transform="matrix(-0.83 0 0 0.83 2291.73 140.16)" id="QWXfXpZ0BRI3Wzfkcbct3"  >
<path style="stroke: none; stroke-width: 1; stroke-dasharray: none; stroke-linecap: butt; stroke-dashoffset: 0; stroke-linejoin: miter; stroke-miterlimit: 4; fill: rgb(0,0,0); fill-rule: nonzero; opacity: 1;" vector-effect="non-scaling-stroke"  transform=" translate(609.71, -983.56)" d="M -588.00778 983.56458 C -588.00778 995.55191 -597.72544 1005.2696 -609.71277 1005.2696 C -621.7001 1005.2696 -631.41775 995.55191 -631.41775 983.56458 C -631.41775 971.57724 -621.7000999999999 961.85959 -609.71277 961.85959 C -597.7254399999999 961.85959 -588.00778 971.5772400000001 -588.00778 983.56458 z" stroke-linecap="round" />
</g>
<g transform="matrix(-0.75 0 0 0.75 2393.74 129.11)" id="4oCIAEiBn2neRPL4AyZLp"  >
<path style="stroke: none; stroke-width: 1; stroke-dasharray: none; stroke-linecap: butt; stroke-dashoffset: 0; stroke-linejoin: miter; stroke-miterlimit: 4; fill: rgb(0,0,0); fill-rule: nonzero; opacity: 1;" vector-effect="non-scaling-stroke"  transform=" translate(609.71, -983.56)" d="M -588.00778 983.56458 C -588.00778 995.55191 -597.72544 1005.2696 -609.71277 1005.2696 C -621.7001 1005.2696 -631.41775 995.55191 -631.41775 983.56458 C -631.41775 971.57724 -621.7000999999999 961.85959 -609.71277 961.85959 C -597.7254399999999 961.85959 -588.00778 971.5772400000001 -588.00778 983.56458 z" stroke-linecap="round" />
</g>
<g transform="matrix(-1.13 0 0 1.13 2400.42 252.31)" id="g796_oXBLx1sGH_aYBIrE"  >
<path style="stroke: none; stroke-width: 1; stroke-dasharray: none; stroke-linecap: butt; stroke-dashoffset: 0; stroke-linejoin: miter; stroke-miterlimit: 4; fill: rgb(0,0,0); fill-rule: nonzero; opacity: 1;" vector-effect="non-scaling-stroke"  transform=" translate(609.71, -983.56)" d="M -588.00778 983.56458 C -588.00778 995.55191 -597.72544 1005.2696 -609.71277 1005.2696 C -621.7001 1005.2696 -631.41775 995.55191 -631.41775 983.56458 C -631.41775 971.57724 -621.7000999999999 961.85959 -609.71277 961.85959 C -597.7254399999999 961.85959 -588.00778 971.5772400000001 -588.00778 983.56458 z" stroke-linecap="round" />
</g>
<g transform="matrix(-0.72 0 0 0.72 222.93 344.3)" id="N4HY0BlTZp1b6MN_PmuaO"  >
<path style="stroke: none; stroke-width: 1; stroke-dasharray: none; stroke-linecap: butt; stroke-dashoffset: 0; stroke-linejoin: miter; stroke-miterlimit: 4; fill: rgb(0,0,0); fill-rule: nonzero; opacity: 1;" vector-effect="non-scaling-stroke"  transform=" translate(609.71, -983.56)" d="M -588.00778 983.56458 C -588.00778 995.55191 -597.72544 1005.2696 -609.71277 1005.2696 C -621.7001 1005.2696 -631.41775 995.55191 -631.41775 983.56458 C -631.41775 971.57724 -621.7000999999999 961.85959 -609.71277 961.85959 C -597.7254399999999 961.85959 -588.00778 971.5772400000001 -588.00778 983.56458 z" stroke-linecap="round" />
</g>
<g transform="matrix(-0.62 0 0 0.62 336.28 58.26)" id="Bp2Wmo6F9TRDanMvYRJ5y"  >
<path style="stroke: none; stroke-width: 1; stroke-dasharray: none; stroke-linecap: butt; stroke-dashoffset: 0; stroke-linejoin: miter; stroke-miterlimit: 4; fill: rgb(0,0,0); fill-rule: nonzero; opacity: 1;" vector-effect="non-scaling-stroke"  transform=" translate(609.71, -983.56)" d="M -588.00778 983.56458 C -588.00778 995.55191 -597.72544 1005.2696 -609.71277 1005.2696 C -621.7001 1005.2696 -631.41775 995.55191 -631.41775 983.56458 C -631.41775 971.57724 -621.7000999999999 961.85959 -609.71277 961.85959 C -597.7254399999999 961.85959 -588.00778 971.5772400000001 -588.00778 983.56458 z" stroke-linecap="round" />
</g>
<g transform="matrix(-0.8 0 0 0.8 221.79 165.68)" id="R4f9R5vRjZeHq8R58C2Ze"  >
<path style="stroke: none; stroke-width: 1; stroke-dasharray: none; stroke-linecap: butt; stroke-dashoffset: 0; stroke-linejoin: miter; stroke-miterlimit: 4; fill: rgb(0,0,0); fill-rule: nonzero; opacity: 1;" vector-effect="non-scaling-stroke"  transform=" translate(609.71, -983.56)" d="M -588.00778 983.56458 C -588.00778 995.55191 -597.72544 1005.2696 -609.71277 1005.2696 C -621.7001 1005.2696 -631.41775 995.55191 -631.41775 983.56458 C -631.41775 971.57724 -621.7000999999999 961.85959 -609.71277 961.85959 C -597.7254399999999 961.85959 -588.00778 971.5772400000001 -588.00778 983.56458 z" stroke-linecap="round" />
</g>
<g transform="matrix(-0.96 0 0 0.96 267.56 241.32)" id="NAJ4B-pL6IT1tW2Y0HVOr"  >
<path style="stroke: none; stroke-width: 1; stroke-dasharray: none; stroke-linecap: butt; stroke-dashoffset: 0; stroke-linejoin: miter; stroke-miterlimit: 4; fill: rgb(0,0,0); fill-rule: nonzero; opacity: 1;" vector-effect="non-scaling-stroke"  transform=" translate(609.71, -983.56)" d="M -588.00778 983.56458 C -588.00778 995.55191 -597.72544 1005.2696 -609.71277 1005.2696 C -621.7001 1005.2696 -631.41775 995.55191 -631.41775 983.56458 C -631.41775 971.57724 -621.7000999999999 961.85959 -609.71277 961.85959 C -597.7254399999999 961.85959 -588.00778 971.5772400000001 -588.00778 983.56458 z" stroke-linecap="round" />
</g>
<g transform="matrix(-0.95 0 0 0.95 113.03 313.83)" id="jYbyyLjR-qw7dPFo38lix"  >
<path style="stroke: none; stroke-width: 1; stroke-dasharray: none; stroke-linecap: butt; stroke-dashoffset: 0; stroke-linejoin: miter; stroke-miterlimit: 4; fill: rgb(0,0,0); fill-rule: nonzero; opacity: 1;" vector-effect="non-scaling-stroke"  transform=" translate(609.71, -983.56)" d="M -588.00778 983.56458 C -588.00778 995.55191 -597.72544 1005.2696 -609.71277 1005.2696 C -621.7001 1005.2696 -631.41775 995.55191 -631.41775 983.56458 C -631.41775 971.57724 -621.7000999999999 961.85959 -609.71277 961.85959 C -597.7254399999999 961.85959 -588.00778 971.5772400000001 -588.00778 983.56458 z" stroke-linecap="round" />
</g>
<g transform="matrix(-1.32 0 0 1.32 278.78 430.52)" id="H4x1OhWodmnwf1hVt3ee-"  >
<path style="stroke: none; stroke-width: 1; stroke-dasharray: none; stroke-linecap: butt; stroke-dashoffset: 0; stroke-linejoin: miter; stroke-miterlimit: 4; fill: rgb(0,0,0); fill-rule: nonzero; opacity: 1;" vector-effect="non-scaling-stroke"  transform=" translate(609.71, -983.56)" d="M -588.00778 983.56458 C -588.00778 995.55191 -597.72544 1005.2696 -609.71277 1005.2696 C -621.7001 1005.2696 -631.41775 995.55191 -631.41775 983.56458 C -631.41775 971.57724 -621.7000999999999 961.85959 -609.71277 961.85959 C -597.7254399999999 961.85959 -588.00778 971.5772400000001 -588.00778 983.56458 z" stroke-linecap="round" />
</g>
<g transform="matrix(-0.96 0 0 0.96 107.31 173.82)" id="zQ_AGdwbxH1rZfGa3Efda"  >
<path style="stroke: none; stroke-width: 1; stroke-dasharray: none; stroke-linecap: butt; stroke-dashoffset: 0; stroke-linejoin: miter; stroke-miterlimit: 4; fill: rgb(0,0,0); fill-rule: nonzero; opacity: 1;" vector-effect="non-scaling-stroke"  transform=" translate(609.71, -983.56)" d="M -588.00778 983.56458 C -588.00778 995.55191 -597.72544 1005.2696 -609.71277 1005.2696 C -621.7001 1005.2696 -631.41775 995.55191 -631.41775 983.56458 C -631.41775 971.57724 -621.7000999999999 961.85959 -609.71277 961.85959 C -597.7254399999999 961.85959 -588.00778 971.5772400000001 -588.00778 983.56458 z" stroke-linecap="round" />
</g>
<g transform="matrix(-0.88 0 0 0.88 791.46 744.98)" id="JxBezju8w_XG-BOoOxk3R"  >
<path style="stroke: none; stroke-width: 1; stroke-dasharray: none; stroke-linecap: butt; stroke-dashoffset: 0; stroke-linejoin: miter; stroke-miterlimit: 4; fill: rgb(0,0,0); fill-rule: nonzero; opacity: 1;" vector-effect="non-scaling-stroke"  transform=" translate(609.71, -983.56)" d="M -588.00778 983.56458 C -588.00778 995.55191 -597.72544 1005.2696 -609.71277 1005.2696 C -621.7001 1005.2696 -631.41775 995.55191 -631.41775 983.56458 C -631.41775 971.57724 -621.7000999999999 961.85959 -609.71277 961.85959 C -597.7254399999999 961.85959 -588.00778 971.5772400000001 -588.00778 983.56458 z" stroke-linecap="round" />
</g>
<g transform="matrix(-0.77 0 0 0.77 577.05 143.37)" id="NezYaYcL6sj9tDleFFs7H"  >
<path style="stroke: none; stroke-width: 1; stroke-dasharray: none; stroke-linecap: butt; stroke-dashoffset: 0; stroke-linejoin: miter; stroke-miterlimit: 4; fill: rgb(0,0,0); fill-rule: nonzero; opacity: 1;" vector-effect="non-scaling-stroke"  transform=" translate(609.71, -983.56)" d="M -588.00778 983.56458 C -588.00778 995.55191 -597.72544 1005.2696 -609.71277 1005.2696 C -621.7001 1005.2696 -631.41775 995.55191 -631.41775 983.56458 C -631.41775 971.57724 -621.7000999999999 961.85959 -609.71277 961.85959 C -597.7254399999999 961.85959 -588.00778 971.5772400000001 -588.00778 983.56458 z" stroke-linecap="round" />
</g>
<g transform="matrix(-1.51 0 0 1.51 775.83 575.22)" id="yiodYH2iwRG8XosQNnrT6"  >
<path style="stroke: none; stroke-width: 1; stroke-dasharray: none; stroke-linecap: butt; stroke-dashoffset: 0; stroke-linejoin: miter; stroke-miterlimit: 4; fill: rgb(0,0,0); fill-rule: nonzero; opacity: 1;" vector-effect="non-scaling-stroke"  transform=" translate(609.71, -983.56)" d="M -588.00778 983.56458 C -588.00778 995.55191 -597.72544 1005.2696 -609.71277 1005.2696 C -621.7001 1005.2696 -631.41775 995.55191 -631.41775 983.56458 C -631.41775 971.57724 -621.7000999999999 961.85959 -609.71277 961.85959 C -597.7254399999999 961.85959 -588.00778 971.5772400000001 -588.00778 983.56458 z" stroke-linecap="round" />
</g>
<g transform="matrix(-1.31 0 0 1.31 785.97 358.12)" id="1ohXOdsxGK-M5yxxX_Qle"  >
<path style="stroke: none; stroke-width: 1; stroke-dasharray: none; stroke-linecap: butt; stroke-dashoffset: 0; stroke-linejoin: miter; stroke-miterlimit: 4; fill: rgb(0,0,0); fill-rule: nonzero; opacity: 1;" vector-effect="non-scaling-stroke"  transform=" translate(609.71, -983.56)" d="M -588.00778 983.56458 C -588.00778 995.55191 -597.72544 1005.2696 -609.71277 1005.2696 C -621.7001 1005.2696 -631.41775 995.55191 -631.41775 983.56458 C -631.41775 971.57724 -621.7000999999999 961.85959 -609.71277 961.85959 C -597.7254399999999 961.85959 -588.00778 971.5772400000001 -588.00778 983.56458 z" stroke-linecap="round" />
</g>
<g transform="matrix(-1.3 0 0 1.3 716.51 164.06)" id="Z5gnnWH5LFeGxN_eya2mB"  >
<path style="stroke: none; stroke-width: 1; stroke-dasharray: none; stroke-linecap: butt; stroke-dashoffset: 0; stroke-linejoin: miter; stroke-miterlimit: 4; fill: rgb(0,0,0); fill-rule: nonzero; opacity: 1;" vector-effect="non-scaling-stroke"  transform=" translate(609.71, -983.56)" d="M -588.00778 983.56458 C -588.00778 995.55191 -597.72544 1005.2696 -609.71277 1005.2696 C -621.7001 1005.2696 -631.41775 995.55191 -631.41775 983.56458 C -631.41775 971.57724 -621.7000999999999 961.85959 -609.71277 961.85959 C -597.7254399999999 961.85959 -588.00778 971.5772400000001 -588.00778 983.56458 z" stroke-linecap="round" />
</g>
<g transform="matrix(-0.85 0 0 0.85 2657.17 255.28)" id="8f6kLBtwMnFW42uyWtLrI"  >
<path style="stroke: none; stroke-width: 1; stroke-dasharray: none; stroke-linecap: butt; stroke-dashoffset: 0; stroke-linejoin: miter; stroke-miterlimit: 4; fill: rgb(0,0,0); fill-rule: nonzero; opacity: 1;" vector-effect="non-scaling-stroke"  transform=" translate(609.71, -983.56)" d="M -588.00778 983.56458 C -588.00778 995.55191 -597.72544 1005.2696 -609.71277 1005.2696 C -621.7001 1005.2696 -631.41775 995.55191 -631.41775 983.56458 C -631.41775 971.57724 -621.7000999999999 961.85959 -609.71277 961.85959 C -597.7254399999999 961.85959 -588.00778 971.5772400000001 -588.00778 983.56458 z" stroke-linecap="round" />
</g>
<g transform="matrix(-1.11 0 0 1.11 2702.3 393.81)" id="ZEnKrnevePg9VVas1VIg5"  >
<path style="stroke: none; stroke-width: 1; stroke-dasharray: none; stroke-linecap: butt; stroke-dashoffset: 0; stroke-linejoin: miter; stroke-miterlimit: 4; fill: rgb(0,0,0); fill-rule: nonzero; opacity: 1;" vector-effect="non-scaling-stroke"  transform=" translate(609.71, -983.56)" d="M -588.00778 983.56458 C -588.00778 995.55191 -597.72544 1005.2696 -609.71277 1005.2696 C -621.7001 1005.2696 -631.41775 995.55191 -631.41775 983.56458 C -631.41775 971.57724 -621.7000999999999 961.85959 -609.71277 961.85959 C -597.7254399999999 961.85959 -588.00778 971.5772400000001 -588.00778 983.56458 z" stroke-linecap="round" />
</g>
<g transform="matrix(-0.87 0 0 0.87 2581.97 306.69)" id="t_-Cg49YUCfMzkn70cKk8"  >
<path style="stroke: none; stroke-width: 1; stroke-dasharray: none; stroke-linecap: butt; stroke-dashoffset: 0; stroke-linejoin: miter; stroke-miterlimit: 4; fill: rgb(0,0,0); fill-rule: nonzero; opacity: 1;" vector-effect="non-scaling-stroke"  transform=" translate(609.71, -983.56)" d="M -588.00778 983.56458 C -588.00778 995.55191 -597.72544 1005.2696 -609.71277 1005.2696 C -621.7001 1005.2696 -631.41775 995.55191 -631.41775 983.56458 C -631.41775 971.57724 -621.7000999999999 961.85959 -609.71277 961.85959 C -597.7254399999999 961.85959 -588.00778 971.5772400000001 -588.00778 983.56458 z" stroke-linecap="round" />
</g>
<g transform="matrix(-1.38 0 0 1.38 2507.4 88.36)" id="N5SzaJEVvHxUd-jo9E8Kp"  >
<path style="stroke: none; stroke-width: 1; stroke-dasharray: none; stroke-linecap: butt; stroke-dashoffset: 0; stroke-linejoin: miter; stroke-miterlimit: 4; fill: rgb(0,0,0); fill-rule: nonzero; opacity: 1;" vector-effect="non-scaling-stroke"  transform=" translate(609.71, -983.56)" d="M -588.00778 983.56458 C -588.00778 995.55191 -597.72544 1005.2696 -609.71277 1005.2696 C -621.7001 1005.2696 -631.41775 995.55191 -631.41775 983.56458 C -631.41775 971.57724 -621.7000999999999 961.85959 -609.71277 961.85959 C -597.7254399999999 961.85959 -588.00778 971.5772400000001 -588.00778 983.56458 z" stroke-linecap="round" />
</g>
<g transform="matrix(-0.55 0 0 0.55 2418.72 221.8)" id="U94tUaQqcnCZc05Lo7ijg"  >
<path style="stroke: none; stroke-width: 1; stroke-dasharray: none; stroke-linecap: butt; stroke-dashoffset: 0; stroke-linejoin: miter; stroke-miterlimit: 4; fill: rgb(0,0,0); fill-rule: nonzero; opacity: 1;" vector-effect="non-scaling-stroke"  transform=" translate(609.71, -983.56)" d="M -588.00778 983.56458 C -588.00778 995.55191 -597.72544 1005.2696 -609.71277 1005.2696 C -621.7001 1005.2696 -631.41775 995.55191 -631.41775 983.56458 C -631.41775 971.57724 -621.7000999999999 961.85959 -609.71277 961.85959 C -597.7254399999999 961.85959 -588.00778 971.5772400000001 -588.00778 983.56458 z" stroke-linecap="round" />
</g>
<g transform="matrix(-0.59 0 0 0.59 2585.98 251.14)" id="17YpfLSvrk7ZlJBeA9D7y"  >
<path style="stroke: none; stroke-width: 1; stroke-dasharray: none; stroke-linecap: butt; stroke-dashoffset: 0; stroke-linejoin: miter; stroke-miterlimit: 4; fill: rgb(0,0,0); fill-rule: nonzero; opacity: 1;" vector-effect="non-scaling-stroke"  transform=" translate(609.71, -983.56)" d="M -588.00778 983.56458 C -588.00778 995.55191 -597.72544 1005.2696 -609.71277 1005.2696 C -621.7001 1005.2696 -631.41775 995.55191 -631.41775 983.56458 C -631.41775 971.57724 -621.7000999999999 961.85959 -609.71277 961.85959 C -597.7254399999999 961.85959 -588.00778 971.5772400000001 -588.00778 983.56458 z" stroke-linecap="round" />
</g>
<g transform="matrix(-0.52 0 0 0.52 2611.71 191.86)" id="0D-iWCJixAVCY6lhR-XLN"  >
<path style="stroke: none; stroke-width: 1; stroke-dasharray: none; stroke-linecap: butt; stroke-dashoffset: 0; stroke-linejoin: miter; stroke-miterlimit: 4; fill: rgb(0,0,0); fill-rule: nonzero; opacity: 1;" vector-effect="non-scaling-stroke"  transform=" translate(609.71, -983.56)" d="M -588.00778 983.56458 C -588.00778 995.55191 -597.72544 1005.2696 -609.71277 1005.2696 C -621.7001 1005.2696 -631.41775 995.55191 -631.41775 983.56458 C -631.41775 971.57724 -621.7000999999999 961.85959 -609.71277 961.85959 C -597.7254399999999 961.85959 -588.00778 971.5772400000001 -588.00778 983.56458 z" stroke-linecap="round" />
</g>
<g transform="matrix(-0.66 0 0 0.66 2651.86 124.53)" id="TCPTlhw44qcZWxBXT0Oj9"  >
<path style="stroke: none; stroke-width: 1; stroke-dasharray: none; stroke-linecap: butt; stroke-dashoffset: 0; stroke-linejoin: miter; stroke-miterlimit: 4; fill: rgb(0,0,0); fill-rule: nonzero; opacity: 1;" vector-effect="non-scaling-stroke"  transform=" translate(609.71, -983.56)" d="M -588.00778 983.56458 C -588.00778 995.55191 -597.72544 1005.2696 -609.71277 1005.2696 C -621.7001 1005.2696 -631.41775 995.55191 -631.41775 983.56458 C -631.41775 971.57724 -621.7000999999999 961.85959 -609.71277 961.85959 C -597.7254399999999 961.85959 -588.00778 971.5772400000001 -588.00778 983.56458 z" stroke-linecap="round" />
</g>
<g transform="matrix(-1.51 0 0 1.51 2616 64.25)" id="F4s42bLWViqv28pa2LtdQ"  >
<path style="stroke: none; stroke-width: 1; stroke-dasharray: none; stroke-linecap: butt; stroke-dashoffset: 0; stroke-linejoin: miter; stroke-miterlimit: 4; fill: rgb(0,0,0); fill-rule: nonzero; opacity: 1;" vector-effect="non-scaling-stroke"  transform=" translate(609.71, -983.56)" d="M -588.00778 983.56458 C -588.00778 995.55191 -597.72544 1005.2696 -609.71277 1005.2696 C -621.7001 1005.2696 -631.41775 995.55191 -631.41775 983.56458 C -631.41775 971.57724 -621.7000999999999 961.85959 -609.71277 961.85959 C -597.7254399999999 961.85959 -588.00778 971.5772400000001 -588.00778 983.56458 z" stroke-linecap="round" />
</g>
<g transform="matrix(-0.51 0 0 0.51 2693.74 210.94)" id="lZdHPnEX7xATrmMowCvnG"  >
<path style="stroke: none; stroke-width: 1; stroke-dasharray: none; stroke-linecap: butt; stroke-dashoffset: 0; stroke-linejoin: miter; stroke-miterlimit: 4; fill: rgb(0,0,0); fill-rule: nonzero; opacity: 1;" vector-effect="non-scaling-stroke"  transform=" translate(609.71, -983.56)" d="M -588.00778 983.56458 C -588.00778 995.55191 -597.72544 1005.2696 -609.71277 1005.2696 C -621.7001 1005.2696 -631.41775 995.55191 -631.41775 983.56458 C -631.41775 971.57724 -621.7000999999999 961.85959 -609.71277 961.85959 C -597.7254399999999 961.85959 -588.00778 971.5772400000001 -588.00778 983.56458 z" stroke-linecap="round" />
</g>
<g transform="matrix(-0.9 0 0 0.9 2756.59 93.44)" id="UBb4ZjlK8P70Y_hX_3i4z"  >
<path style="stroke: none; stroke-width: 1; stroke-dasharray: none; stroke-linecap: butt; stroke-dashoffset: 0; stroke-linejoin: miter; stroke-miterlimit: 4; fill: rgb(0,0,0); fill-rule: nonzero; opacity: 1;" vector-effect="non-scaling-stroke"  transform=" translate(609.71, -983.56)" d="M -588.00778 983.56458 C -588.00778 995.55191 -597.72544 1005.2696 -609.71277 1005.2696 C -621.7001 1005.2696 -631.41775 995.55191 -631.41775 983.56458 C -631.41775 971.57724 -621.7000999999999 961.85959 -609.71277 961.85959 C -597.7254399999999 961.85959 -588.00778 971.5772400000001 -588.00778 983.56458 z" stroke-linecap="round" />
</g>
<g transform="matrix(-0.56 0 0 0.56 2536.69 139.64)" id="48ckYezqpoBz27KC0Y3nV"  >
<path style="stroke: none; stroke-width: 1; stroke-dasharray: none; stroke-linecap: butt; stroke-dashoffset: 0; stroke-linejoin: miter; stroke-miterlimit: 4; fill: rgb(0,0,0); fill-rule: nonzero; opacity: 1;" vector-effect="non-scaling-stroke"  transform=" translate(609.71, -983.56)" d="M -588.00778 983.56458 C -588.00778 995.55191 -597.72544 1005.2696 -609.71277 1005.2696 C -621.7001 1005.2696 -631.41775 995.55191 -631.41775 983.56458 C -631.41775 971.57724 -621.7000999999999 961.85959 -609.71277 961.85959 C -597.7254399999999 961.85959 -588.00778 971.5772400000001 -588.00778 983.56458 z" stroke-linecap="round" />
</g>
<g transform="matrix(-0.86 0 0 0.86 2667.93 253.53)" id="mVcb91EKjllNfuOwD8TT7"  >
<path style="stroke: none; stroke-width: 1; stroke-dasharray: none; stroke-linecap: butt; stroke-dashoffset: 0; stroke-linejoin: miter; stroke-miterlimit: 4; fill: rgb(0,0,0); fill-rule: nonzero; opacity: 1;" vector-effect="non-scaling-stroke"  transform=" translate(609.71, -983.56)" d="M -588.00778 983.56458 C -588.00778 995.55191 -597.72544 1005.2696 -609.71277 1005.2696 C -621.7001 1005.2696 -631.41775 995.55191 -631.41775 983.56458 C -631.41775 971.57724 -621.7000999999999 961.85959 -609.71277 961.85959 C -597.7254399999999 961.85959 -588.00778 971.5772400000001 -588.00778 983.56458 z" stroke-linecap="round" />
</g>
<g transform="matrix(-0.88 0 0 0.88 2590.02 159.14)" id="ClqVV5lMHHBxaT_BhLU11"  >
<path style="stroke: none; stroke-width: 1; stroke-dasharray: none; stroke-linecap: butt; stroke-dashoffset: 0; stroke-linejoin: miter; stroke-miterlimit: 4; fill: rgb(0,0,0); fill-rule: nonzero; opacity: 1;" vector-effect="non-scaling-stroke"  transform=" translate(609.71, -983.56)" d="M -588.00778 983.56458 C -588.00778 995.55191 -597.72544 1005.2696 -609.71277 1005.2696 C -621.7001 1005.2696 -631.41775 995.55191 -631.41775 983.56458 C -631.41775 971.57724 -621.7000999999999 961.85959 -609.71277 961.85959 C -597.7254399999999 961.85959 -588.00778 971.5772400000001 -588.00778 983.56458 z" stroke-linecap="round" />
</g>
<g transform="matrix(-1.2 0 0 1.2 2527.54 200.68)" id="TExDes8EhqUdHRavPD55b"  >
<path style="stroke: none; stroke-width: 1; stroke-dasharray: none; stroke-linecap: butt; stroke-dashoffset: 0; stroke-linejoin: miter; stroke-miterlimit: 4; fill: rgb(0,0,0); fill-rule: nonzero; opacity: 1;" vector-effect="non-scaling-stroke"  transform=" translate(609.71, -983.56)" d="M -588.00778 983.56458 C -588.00778 995.55191 -597.72544 1005.2696 -609.71277 1005.2696 C -621.7001 1005.2696 -631.41775 995.55191 -631.41775 983.56458 C -631.41775 971.57724 -621.7000999999999 961.85959 -609.71277 961.85959 C -597.7254399999999 961.85959 -588.00778 971.5772400000001 -588.00778 983.56458 z" stroke-linecap="round" />
</g>
<g transform="matrix(-1.16 0 0 1.16 2592.95 243.59)" id="3xAQ8BOzzsZ4RLfd9euKw"  >
<path style="stroke: none; stroke-width: 1; stroke-dasharray: none; stroke-linecap: butt; stroke-dashoffset: 0; stroke-linejoin: miter; stroke-miterlimit: 4; fill: rgb(0,0,0); fill-rule: nonzero; opacity: 1;" vector-effect="non-scaling-stroke"  transform=" translate(609.71, -983.56)" d="M -588.00778 983.56458 C -588.00778 995.55191 -597.72544 1005.2696 -609.71277 1005.2696 C -621.7001 1005.2696 -631.41775 995.55191 -631.41775 983.56458 C -631.41775 971.57724 -621.7000999999999 961.85959 -609.71277 961.85959 C -597.7254399999999 961.85959 -588.00778 971.5772400000001 -588.00778 983.56458 z" stroke-linecap="round" />
</g>
<g transform="matrix(-0.87 0 0 0.87 2692.73 172.38)" id="c7zq92_HTl2RvuUlUbSf1"  >
<path style="stroke: none; stroke-width: 1; stroke-dasharray: none; stroke-linecap: butt; stroke-dashoffset: 0; stroke-linejoin: miter; stroke-miterlimit: 4; fill: rgb(0,0,0); fill-rule: nonzero; opacity: 1;" vector-effect="non-scaling-stroke"  transform=" translate(609.71, -983.56)" d="M -588.00778 983.56458 C -588.00778 995.55191 -597.72544 1005.2696 -609.71277 1005.2696 C -621.7001 1005.2696 -631.41775 995.55191 -631.41775 983.56458 C -631.41775 971.57724 -621.7000999999999 961.85959 -609.71277 961.85959 C -597.7254399999999 961.85959 -588.00778 971.5772400000001 -588.00778 983.56458 z" stroke-linecap="round" />
</g>
<g transform="matrix(-1.32 0 0 1.32 2745.27 271.41)" id="rQgQbsmq_NkGDiw0N2Koh"  >
<path style="stroke: none; stroke-width: 1; stroke-dasharray: none; stroke-linecap: butt; stroke-dashoffset: 0; stroke-linejoin: miter; stroke-miterlimit: 4; fill: rgb(0,0,0); fill-rule: nonzero; opacity: 1;" vector-effect="non-scaling-stroke"  transform=" translate(609.71, -983.56)" d="M -588.00778 983.56458 C -588.00778 995.55191 -597.72544 1005.2696 -609.71277 1005.2696 C -621.7001 1005.2696 -631.41775 995.55191 -631.41775 983.56458 C -631.41775 971.57724 -621.7000999999999 961.85959 -609.71277 961.85959 C -597.7254399999999 961.85959 -588.00778 971.5772400000001 -588.00778 983.56458 z" stroke-linecap="round" />
</g>
<g transform="matrix(-1.19 0 0 1.19 2786.77 162.77)" id="6DR98Rrs-3nyGb6cjK1Mj"  >
<path style="stroke: none; stroke-width: 1; stroke-dasharray: none; stroke-linecap: butt; stroke-dashoffset: 0; stroke-linejoin: miter; stroke-miterlimit: 4; fill: rgb(0,0,0); fill-rule: nonzero; opacity: 1;" vector-effect="non-scaling-stroke"  transform=" translate(609.71, -983.56)" d="M -588.00778 983.56458 C -588.00778 995.55191 -597.72544 1005.2696 -609.71277 1005.2696 C -621.7001 1005.2696 -631.41775 995.55191 -631.41775 983.56458 C -631.41775 971.57724 -621.7000999999999 961.85959 -609.71277 961.85959 C -597.7254399999999 961.85959 -588.00778 971.5772400000001 -588.00778 983.56458 z" stroke-linecap="round" />
</g>
<g transform="matrix(-0.84 0 0 0.84 2466.76 205.01)" id="vBdbnBEt_uz_Ev19DfDIu"  >
<path style="stroke: none; stroke-width: 1; stroke-dasharray: none; stroke-linecap: butt; stroke-dashoffset: 0; stroke-linejoin: miter; stroke-miterlimit: 4; fill: rgb(0,0,0); fill-rule: nonzero; opacity: 1;" vector-effect="non-scaling-stroke"  transform=" translate(609.71, -983.56)" d="M -588.00778 983.56458 C -588.00778 995.55191 -597.72544 1005.2696 -609.71277 1005.2696 C -621.7001 1005.2696 -631.41775 995.55191 -631.41775 983.56458 C -631.41775 971.57724 -621.7000999999999 961.85959 -609.71277 961.85959 C -597.7254399999999 961.85959 -588.00778 971.5772400000001 -588.00778 983.56458 z" stroke-linecap="round" />
</g>
<g transform="matrix(1 0 0 1 3460 997.82)" style="" id="u_0DxVM7756VTamYOAEJc"  >
		<text xml:space="preserve" font-family="Sans" font-size="70" font-style="normal" font-weight="normal" line-height="1.25" style="stroke: none; stroke-width: 1; stroke-dasharray: none; stroke-linecap: butt; stroke-dashoffset: 0; stroke-linejoin: miter; stroke-miterlimit: 4; fill: rgb(0,0,0); fill-rule: nonzero; opacity: 1; white-space: pre;" ><tspan x="-321.77" y="21.99" >Both Reliable &amp; Valid</tspan></text>
</g>
<g transform="matrix(1 0 0 1 1427.48 993.02)" style="" id="fx1oZjYosKHEMc_G_y8Sg"  >
		<text xml:space="preserve" font-family="Sans" font-size="70" font-style="normal" font-weight="normal" line-height="1.25" style="stroke: none; stroke-width: 1; stroke-dasharray: none; stroke-linecap: butt; stroke-dashoffset: 0; stroke-linejoin: miter; stroke-miterlimit: 4; fill: rgb(0,0,0); fill-rule: nonzero; opacity: 1; white-space: pre;" ><tspan x="-278.98" y="21.99" >Reliable, Not Valid</tspan></text>
</g>
<g transform="matrix(1 0 0 1 2408.17 961.02)" style="" id="cUvX8ylo0tMWaBLryUUJQ"  >
		<text xml:space="preserve" font-family="Sans" font-size="70" font-style="normal" font-weight="normal" line-height="1.25" style="stroke: none; stroke-width: 1; stroke-dasharray: none; stroke-linecap: butt; stroke-dashoffset: 0; stroke-linejoin: miter; stroke-miterlimit: 4; fill: rgb(0,0,0); fill-rule: nonzero; opacity: 1; white-space: pre;" ><tspan x="-314.92" y="21.99" >Unreliable &amp; Unvalid</tspan></text>
</g>
<g transform="matrix(1 0 0 1 454.26 961.02)" style="" id="xSPioZEFOgyEZ0w4pPTAh"  >
		<text xml:space="preserve" font-family="Sans" font-size="70" font-style="normal" font-weight="normal" line-height="1.25" style="stroke: none; stroke-width: 1; stroke-dasharray: none; stroke-linecap: butt; stroke-dashoffset: 0; stroke-linejoin: miter; stroke-miterlimit: 4; fill: rgb(0,0,0); fill-rule: nonzero; opacity: 1; white-space: pre;" ><tspan x="-308.13" y="21.99" >Unreliable, But Valid</tspan></text>
</g>
</svg>