<?xml version="1.0" encoding="UTF-8" standalone="no"?><!-- Generator: Gravit.io --><svg xmlns="http://www.w3.org/2000/svg" xmlns:xlink="http://www.w3.org/1999/xlink" style="isolation:isolate" viewBox="0 0 3903 1012" width="3903pt" height="1012pt"><defs><clipPath id="_clipPath_OXojQmis5u32W0H8NP8L3LnKw8fKeIJE"><rect width="3903" height="1012"/></clipPath></defs><g clip-path="url(#_clipPath_OXojQmis5u32W0H8NP8L3LnKw8fKeIJE)"><g><mask id="_mask_67SKDZlwra0CwqEANcJBDxyEqpbqxalG" x="-200%" y="-200%" width="400%" height="400%"><rect x="-200%" y="-200%" width="400%" height="400%" style="fill:white;"/><path d=" M 1824.995 450.018 C 1824.995 657.127 1657.1 825.023 1449.992 825.023 C 1242.884 825.023 1074.99 657.127 1074.99 450.018 C 1074.99 242.909 1242.884 75.013 1449.992 75.013 C 1657.1 75.013 1824.995 242.909 1824.995 450.018 L 1824.995 450.018 Z " fill="black" stroke="none"/></mask><path d=" M 1824.995 450.018 C 1824.995 657.127 1657.1 825.023 1449.992 825.023 C 1242.884 825.023 1074.99 657.127 1074.99 450.018 C 1074.99 242.909 1242.884 75.013 1449.992 75.013 C 1657.1 75.013 1824.995 242.909 1824.995 450.018 L 1824.995 450.018 Z " fill="none"/><path d=" M 1824.995 450.018 C 1824.995 657.127 1657.1 825.023 1449.992 825.023 C 1242.884 825.023 1074.99 657.127 1074.99 450.018 C 1074.99 242.909 1242.884 75.013 1449.992 75.013 C 1657.1 75.013 1824.995 242.909 1824.995 450.018 L 1824.995 450.018 Z " fill="none" mask="url(#_mask_67SKDZlwra0CwqEANcJBDxyEqpbqxalG)" vector-effect="non-scaling-stroke" stroke-width="100" stroke="rgb(212,0,0)" stroke-linejoin="miter" stroke-linecap="butt" stroke-miterlimit="4"/><mask id="_mask_eGu8HpffJiaceWSj3UvLldJtNBuIWYSv" x="-200%" y="-200%" width="400%" height="400%"><rect x="-200%" y="-200%" width="400%" height="400%" style="fill:white;"/><path d=" M 1625.009 450.015 C 1625.009 546.667 1546.659 625.019 1450.01 625.019 C 1353.36 625.019 1275.011 546.667 1275.011 450.015 C 1275.011 353.364 1353.36 275.012 1450.01 275.012 C 1546.659 275.012 1625.009 353.364 1625.009 450.015 L 1625.009 450.015 Z " fill="black" stroke="none"/></mask><path d=" M 1625.009 450.015 C 1625.009 546.667 1546.659 625.019 1450.01 625.019 C 1353.36 625.019 1275.011 546.667 1275.011 450.015 C 1275.011 353.364 1353.36 275.012 1450.01 275.012 C 1546.659 275.012 1625.009 353.364 1625.009 450.015 L 1625.009 450.015 Z " fill="none"/><path d=" M 1625.009 450.015 C 1625.009 546.667 1546.659 625.019 1450.01 625.019 C 1353.36 625.019 1275.011 546.667 1275.011 450.015 C 1275.011 353.364 1353.36 275.012 1450.01 275.012 C 1546.659 275.012 1625.009 353.364 1625.009 450.015 L 1625.009 450.015 Z " fill="none" mask="url(#_mask_eGu8HpffJiaceWSj3UvLldJtNBuIWYSv)" vector-effect="non-scaling-stroke" stroke-width="100" stroke="rgb(212,0,0)" stroke-linejoin="miter" stroke-linecap="butt" stroke-miterlimit="4"/><path d=" M 1725.01 450.014 C 1725.01 601.887 1601.89 725.005 1450.014 725.005 C 1298.138 725.005 1175.018 601.887 1175.018 450.014 C 1175.018 298.14 1298.138 175.023 1450.014 175.023 C 1601.89 175.023 1725.01 298.14 1725.01 450.014 L 1725.01 450.014 Z  M 1775.01 450.01 C 1775.02 471.99 1772.81 493.91 1768.41 515.44 C 1764.13 536.39 1757.77 556.85 1749.45 576.54 C 1733.11 615.13 1709.46 650.2 1679.82 679.82 C 1650.2 709.46 1615.13 733.1 1576.54 749.44 C 1556.86 757.77 1536.39 764.12 1515.45 768.41 C 1493.91 772.8 1471.99 775.01 1450.01 775 C 1428.04 775.01 1406.11 772.8 1384.58 768.41 C 1363.64 764.12 1343.17 757.77 1323.49 749.44 C 1284.9 733.1 1249.83 709.46 1220.21 679.82 C 1190.57 650.2 1166.92 615.13 1150.58 576.54 C 1142.26 556.85 1135.9 536.39 1131.62 515.45 C 1127.22 493.91 1125.01 471.99 1125.02 450.01 C 1125.01 428.04 1127.22 406.11 1131.62 384.58 C 1135.9 363.64 1142.26 343.17 1150.58 323.49 C 1166.92 284.9 1190.57 249.83 1220.21 220.21 C 1249.83 190.57 1284.9 166.93 1323.49 150.59 C 1343.17 142.26 1363.64 135.91 1384.58 131.62 C 1406.11 127.23 1428.04 125.01 1450.01 125.02 C 1471.99 125.01 1493.91 127.23 1515.45 131.62 C 1536.39 135.91 1556.86 142.26 1576.54 150.59 C 1615.13 166.93 1650.2 190.57 1679.82 220.21 C 1709.46 249.83 1733.11 284.9 1749.45 323.49 C 1757.77 343.17 1764.13 363.64 1768.41 384.58 C 1772.81 406.11 1775.02 428.04 1775.01 450.01 Z " fill-rule="evenodd" fill="rgb(212,0,0)"/><mask id="_mask_jvNFC2WK8AXmImOY1R0JtgvpHMm1DA1M" x="-200%" y="-200%" width="400%" height="400%"><rect x="-200%" y="-200%" width="400%" height="400%" style="fill:white;"/><line x1="1450.01" y1="0.011" x2="1450.01" y2="900.01" fill="black" stroke="none"/></mask><line x1="1450.01" y1="0.011" x2="1450.01" y2="900.01" mask="url(#_mask_jvNFC2WK8AXmImOY1R0JtgvpHMm1DA1M)" vector-effect="non-scaling-stroke" stroke-width="10" stroke="rgb(36,28,28)" stroke-linejoin="miter" stroke-linecap="butt" stroke-miterlimit="4"/><mask id="_mask_sgfZjPPe3gbVXdOPajBP3PgzOXnH7hoT" x="-200%" y="-200%" width="400%" height="400%"><rect x="-200%" y="-200%" width="400%" height="400%" style="fill:white;"/><line x1="1900" y1="450" x2="1000" y2="450" fill="black" stroke="none"/></mask><line x1="1900" y1="450" x2="1000" y2="450" mask="url(#_mask_sgfZjPPe3gbVXdOPajBP3PgzOXnH7hoT)" vector-effect="non-scaling-stroke" stroke-width="10" stroke="rgb(36,28,28)" stroke-linejoin="miter" stroke-linecap="butt" stroke-miterlimit="4"/><path d=" M 1549.994 450.016 C 1549.994 505.249 1505.223 550.024 1449.994 550.024 C 1394.766 550.024 1349.995 505.249 1349.995 450.016 C 1349.995 394.783 1394.766 350.008 1449.994 350.008 C 1505.223 350.008 1549.994 394.783 1549.994 450.016 L 1549.994 450.016 Z " fill="rgb(212,0,0)"/></g><g><path d=" M 3824.995 450.018 C 3824.995 657.127 3657.1 825.023 3449.992 825.023 C 3242.884 825.023 3074.99 657.127 3074.99 450.018 C 3074.99 242.909 3242.884 75.013 3449.992 75.013 C 3657.1 75.013 3824.995 242.909 3824.995 450.018 L 3824.995 450.018 Z  M 3874.99 450.02 C 3875.01 478.76 3872.12 507.43 3866.37 535.6 C 3860.76 562.98 3852.46 589.74 3841.57 615.47 C 3820.2 665.94 3789.28 711.8 3750.51 750.54 C 3711.78 789.31 3665.91 820.23 3615.45 841.6 C 3589.71 852.49 3562.96 860.79 3535.58 866.39 C 3507.41 872.14 3478.74 875.03 3449.99 875.02 C 3421.25 875.03 3392.57 872.14 3364.4 866.39 C 3337.03 860.79 3310.27 852.49 3284.54 841.6 C 3234.07 820.23 3188.21 789.31 3149.47 750.54 C 3110.7 711.8 3079.78 665.94 3058.41 615.47 C 3047.53 589.74 3039.22 562.98 3033.62 535.61 C 3027.87 507.44 3024.98 478.77 3024.99 450.02 C 3024.98 421.27 3027.87 392.6 3033.62 364.43 C 3039.22 337.05 3047.53 310.3 3058.41 284.56 C 3079.78 234.1 3110.7 188.23 3149.47 149.49 C 3188.21 110.73 3234.07 79.81 3284.54 58.44 C 3310.27 47.55 3337.03 39.25 3364.4 33.64 C 3392.57 27.89 3421.25 25 3449.99 25.01 C 3478.74 25 3507.41 27.89 3535.58 33.64 C 3562.96 39.25 3589.71 47.55 3615.45 58.44 C 3665.91 79.81 3711.78 110.73 3750.51 149.49 C 3789.28 188.23 3820.2 234.1 3841.57 284.56 C 3852.46 310.3 3860.76 337.05 3866.36 364.43 C 3872.11 392.6 3875.01 421.27 3874.99 450.02 Z " fill-rule="evenodd" fill="rgb(212,0,0)"/><path d=" M 3625.009 450.015 C 3625.009 546.667 3546.659 625.019 3450.01 625.019 C 3353.36 625.019 3275.011 546.667 3275.011 450.015 C 3275.011 353.364 3353.36 275.012 3450.01 275.012 C 3546.659 275.012 3625.009 353.364 3625.009 450.015 L 3625.009 450.015 Z  M 3675.01 450.02 C 3675.01 465.22 3673.48 480.39 3670.44 495.29 C 3667.47 509.81 3663.07 523.98 3657.3 537.62 C 3645.99 564.33 3629.63 588.61 3609.11 609.12 C 3588.6 629.64 3564.33 646 3537.62 657.31 C 3523.98 663.08 3509.8 667.48 3495.29 670.45 C 3480.39 673.49 3465.22 675.02 3450.01 675.02 C 3434.8 675.02 3419.63 673.49 3404.73 670.45 C 3390.22 667.48 3376.04 663.08 3362.4 657.31 C 3335.69 646 3311.42 629.64 3290.91 609.12 C 3270.39 588.61 3254.03 564.33 3242.72 537.62 C 3236.95 523.98 3232.55 509.81 3229.58 495.3 C 3226.54 480.4 3225.01 465.22 3225.01 450.02 C 3225.01 434.81 3226.54 419.64 3229.58 404.73 C 3232.55 390.23 3236.95 376.05 3242.72 362.41 C 3254.03 335.7 3270.39 311.42 3290.91 290.91 C 3311.42 270.4 3335.69 254.03 3362.4 242.72 C 3376.04 236.95 3390.22 232.55 3404.73 229.58 C 3419.63 226.54 3434.8 225.01 3450.01 225.01 C 3465.22 225.01 3480.39 226.54 3495.29 229.58 C 3509.8 232.55 3523.98 236.95 3537.62 242.72 C 3564.33 254.03 3588.6 270.4 3609.11 290.91 C 3629.63 311.42 3645.99 335.7 3657.3 362.41 C 3663.07 376.05 3667.47 390.23 3670.44 404.73 C 3673.48 419.64 3675.01 434.81 3675.01 450.02 Z " fill-rule="evenodd" fill="rgb(212,0,0)"/><path d=" M 3725.01 450.014 C 3725.01 601.887 3601.89 725.005 3450.014 725.005 C 3298.138 725.005 3175.018 601.887 3175.018 450.014 C 3175.018 298.14 3298.138 175.023 3450.014 175.023 C 3601.89 175.023 3725.01 298.14 3725.01 450.014 L 3725.01 450.014 Z  M 3775.01 450.01 C 3775.02 471.99 3772.81 493.91 3768.41 515.44 C 3764.13 536.39 3757.77 556.85 3749.45 576.54 C 3733.11 615.13 3709.46 650.2 3679.82 679.82 C 3650.2 709.46 3615.13 733.1 3576.54 749.44 C 3556.86 757.77 3536.39 764.12 3515.45 768.41 C 3493.91 772.8 3471.99 775.01 3450.01 775 C 3428.04 775.01 3406.11 772.8 3384.58 768.41 C 3363.64 764.12 3343.17 757.77 3323.49 749.44 C 3284.9 733.1 3249.83 709.46 3220.21 679.82 C 3190.57 650.2 3166.92 615.13 3150.58 576.54 C 3142.26 556.85 3135.9 536.39 3131.62 515.45 C 3127.22 493.91 3125.01 471.99 3125.02 450.01 C 3125.01 428.04 3127.22 406.11 3131.62 384.58 C 3135.9 363.64 3142.26 343.17 3150.58 323.49 C 3166.92 284.9 3190.57 249.83 3220.21 220.21 C 3249.83 190.57 3284.9 166.93 3323.49 150.59 C 3343.17 142.26 3363.64 135.91 3384.58 131.62 C 3406.11 127.23 3428.04 125.01 3450.01 125.02 C 3471.99 125.01 3493.91 127.23 3515.45 131.62 C 3536.39 135.91 3556.86 142.26 3576.54 150.59 C 3615.13 166.93 3650.2 190.57 3679.82 220.21 C 3709.46 249.83 3733.11 284.9 3749.45 323.49 C 3757.77 343.17 3764.13 363.64 3768.41 384.58 C 3772.81 406.11 3775.02 428.04 3775.01 450.01 Z " fill-rule="evenodd" fill="rgb(212,0,0)"/><path d=" M 3450.01 900.01 L 3450.01 0.011 M 3445.01 900.01 L 3445.01 0.01" fill-rule="evenodd" fill="rgb(36,28,28)"/><path d=" M 3000 450 L 3900 450 M 3000 445 L 3900 445" fill-rule="evenodd" fill="rgb(36,28,28)"/><path d=" M 3549.994 450.016 C 3549.994 505.249 3505.223 550.024 3449.994 550.024 C 3394.766 550.024 3349.995 505.249 3349.995 450.016 C 3349.995 394.783 3394.766 350.008 3449.994 350.008 C 3505.223 350.008 3549.994 394.783 3549.994 450.016 L 3549.994 450.016 Z " fill="rgb(212,0,0)"/></g><path d=" M 3534.272 531.879 C 3534.272 539.25 3528.297 545.225 3520.926 545.225 C 3513.556 545.225 3507.58 539.25 3507.58 531.879 C 3507.58 524.508 3513.556 518.533 3520.926 518.533 C 3528.297 518.533 3534.272 524.508 3534.272 531.879 Z " fill="rgb(0,0,0)"/><path d=" M 3549.868 413.226 C 3549.868 420.304 3544.13 426.043 3537.052 426.043 C 3529.974 426.043 3524.236 420.304 3524.236 413.226 C 3524.236 406.148 3529.974 400.41 3537.052 400.41 C 3544.13 400.41 3549.868 406.148 3549.868 413.226 Z " fill="rgb(0,0,0)"/><path d=" M 3378.954 436.146 C 3378.954 448.932 3368.588 459.298 3355.802 459.298 C 3343.015 459.298 3332.649 448.932 3332.649 436.146 C 3332.649 423.359 3343.015 412.994 3355.802 412.994 C 3368.588 412.994 3378.954 423.359 3378.954 436.146 Z " fill="rgb(0,0,0)"/><path d=" M 3400.319 396.71 C 3400.319 404.645 3393.886 411.078 3385.951 411.078 C 3378.016 411.078 3371.584 404.645 3371.584 396.71 C 3371.584 388.775 3378.016 382.343 3385.951 382.343 C 3393.886 382.343 3400.319 388.775 3400.319 396.71 Z " fill="rgb(0,0,0)"/><path d=" M 3434.464 357.06 C 3434.464 369.979 3423.991 380.453 3411.072 380.453 C 3398.153 380.453 3387.68 369.979 3387.68 357.06 C 3387.68 344.141 3398.153 333.668 3411.072 333.668 C 3423.991 333.668 3434.464 344.141 3434.464 357.06 Z " fill="rgb(0,0,0)"/><path d=" M 3434.044 473.217 C 3434.044 487.855 3422.177 499.723 3407.538 499.723 C 3392.899 499.723 3381.032 487.855 3381.032 473.217 C 3381.032 458.578 3392.899 446.71 3407.538 446.71 C 3422.177 446.71 3434.044 458.578 3434.044 473.217 Z " fill="rgb(0,0,0)"/><path d=" M 3476.582 470.427 C 3476.582 479.234 3469.443 486.373 3460.636 486.373 C 3451.829 486.373 3444.69 479.234 3444.69 470.427 C 3444.69 461.621 3451.829 454.481 3460.636 454.481 C 3469.443 454.481 3476.582 461.621 3476.582 470.427 Z " fill="rgb(0,0,0)"/><path d=" M 3437.637 543.99 C 3437.637 549.945 3432.809 554.773 3426.854 554.773 C 3420.899 554.773 3416.071 549.945 3416.071 543.99 C 3416.071 538.035 3420.899 533.207 3426.854 533.207 C 3432.809 533.207 3437.637 538.035 3437.637 543.99 Z " fill="rgb(0,0,0)"/><path d=" M 3437.841 419.725 C 3437.841 429.173 3430.182 436.833 3420.734 436.833 C 3411.286 436.833 3403.626 429.173 3403.626 419.725 C 3403.626 410.277 3411.286 402.618 3420.734 402.618 C 3430.182 402.618 3437.841 410.277 3437.841 419.725 Z " fill="rgb(0,0,0)"/><path d=" M 3479.727 551.576 C 3479.727 557.711 3474.754 562.684 3468.619 562.684 C 3462.485 562.684 3457.511 557.711 3457.511 551.576 C 3457.511 545.441 3462.485 540.468 3468.619 540.468 C 3474.754 540.468 3479.727 545.441 3479.727 551.576 Z " fill="rgb(0,0,0)"/><path d=" M 3539.178 359.565 C 3539.178 373.982 3527.491 385.669 3513.073 385.669 C 3498.656 385.669 3486.969 373.982 3486.969 359.565 C 3486.969 345.147 3498.656 333.46 3513.073 333.46 C 3527.491 333.46 3539.178 345.147 3539.178 359.565 Z " fill="rgb(0,0,0)"/><path d=" M 3567.841 471.894 C 3567.841 489.439 3553.617 503.662 3536.072 503.662 C 3518.526 503.662 3504.303 489.439 3504.303 471.894 C 3504.303 454.348 3518.526 440.125 3536.072 440.125 C 3553.617 440.125 3567.841 454.348 3567.841 471.894 Z " fill="rgb(0,0,0)"/><path d=" M 3493.164 514.834 C 3493.164 524.766 3485.112 532.817 3475.181 532.817 C 3465.249 532.817 3457.198 524.766 3457.198 514.834 C 3457.198 504.902 3465.249 496.851 3475.181 496.851 C 3485.112 496.851 3493.164 504.902 3493.164 514.834 Z " fill="rgb(0,0,0)"/><path d=" M 3502.808 413.437 C 3502.808 428.007 3490.996 439.819 3476.426 439.819 C 3461.856 439.819 3450.044 428.007 3450.044 413.437 C 3450.044 398.867 3461.856 387.055 3476.426 387.055 C 3490.996 387.055 3502.808 398.867 3502.808 413.437 Z " fill="rgb(0,0,0)"/><path d=" M 3393.951 520.06 C 3393.951 529.988 3385.903 538.036 3375.975 538.036 C 3366.047 538.036 3358 529.988 3358 520.06 C 3358 510.132 3366.047 502.084 3375.975 502.084 C 3385.903 502.084 3393.951 510.132 3393.951 520.06 Z " fill="rgb(0,0,0)"/><path d=" M 1700.888 198.941 C 1700.888 214.581 1688.21 227.26 1672.57 227.26 C 1656.93 227.26 1644.251 214.581 1644.251 198.941 C 1644.251 183.301 1656.93 170.622 1672.57 170.622 C 1688.21 170.622 1700.888 183.301 1700.888 198.941 Z " fill="rgb(0,0,0)"/><path d=" M 1592.828 200.509 C 1592.828 206.8 1587.728 211.9 1581.437 211.9 C 1575.145 211.9 1570.045 206.8 1570.045 200.509 C 1570.045 194.217 1575.145 189.117 1581.437 189.117 C 1587.728 189.117 1592.828 194.217 1592.828 200.509 Z " fill="rgb(0,0,0)"/><path d=" M 1770.714 217.664 C 1770.714 224.077 1765.515 229.276 1759.102 229.276 C 1752.688 229.276 1747.489 224.077 1747.489 217.664 C 1747.489 211.25 1752.688 206.051 1759.102 206.051 C 1765.515 206.051 1770.714 211.25 1770.714 217.664 Z " fill="rgb(0,0,0)"/><path d=" M 1697.354 273.947 C 1697.354 287.23 1686.586 297.998 1673.303 297.998 C 1660.021 297.998 1649.253 287.23 1649.253 273.947 C 1649.253 260.664 1660.021 249.897 1673.303 249.897 C 1686.586 249.897 1697.354 260.664 1697.354 273.947 Z " fill="rgb(0,0,0)"/><path d=" M 1732.804 293.469 C 1732.804 304.396 1723.945 313.254 1713.019 313.254 C 1702.092 313.254 1693.234 304.396 1693.234 293.469 C 1693.234 282.542 1702.092 273.684 1713.019 273.684 C 1723.945 273.684 1732.804 282.542 1732.804 293.469 Z " fill="rgb(0,0,0)"/><path d=" M 1726.527 172.186 C 1726.527 179.701 1720.435 185.793 1712.92 185.793 C 1705.405 185.793 1699.313 179.701 1699.313 172.186 C 1699.313 164.672 1705.405 158.58 1712.92 158.58 C 1720.435 158.58 1726.527 164.672 1726.527 172.186 Z " fill="rgb(0,0,0)"/><path d=" M 1703.072 146.277 C 1703.072 158.24 1693.374 167.938 1681.411 167.938 C 1669.449 167.938 1659.751 158.24 1659.751 146.277 C 1659.751 134.314 1669.449 124.616 1681.411 124.616 C 1693.374 124.616 1703.072 134.314 1703.072 146.277 Z " fill="rgb(0,0,0)"/><path d=" M 1644.27 282.486 C 1644.27 290.207 1638.011 296.466 1630.29 296.466 C 1622.57 296.466 1616.311 290.207 1616.311 282.486 C 1616.311 274.766 1622.57 268.507 1630.29 268.507 C 1638.011 268.507 1644.27 274.766 1644.27 282.486 Z " fill="rgb(0,0,0)"/><path d=" M 1697.585 239.222 C 1697.585 245.246 1692.702 250.13 1686.678 250.13 C 1680.654 250.13 1675.771 245.246 1675.771 239.222 C 1675.771 233.198 1680.654 228.315 1686.678 228.315 C 1692.702 228.315 1697.585 233.198 1697.585 239.222 Z " fill="rgb(0,0,0)"/><path d=" M 1637.361 236.631 C 1637.361 251.206 1625.547 263.02 1610.972 263.02 C 1596.398 263.02 1584.583 251.206 1584.583 236.631 C 1584.583 222.057 1596.398 210.242 1610.972 210.242 C 1625.547 210.242 1637.361 222.057 1637.361 236.631 Z " fill="rgb(0,0,0)"/><path d=" M 1672.85 237.564 C 1672.85 245.686 1666.266 252.271 1658.143 252.271 C 1650.021 252.271 1643.437 245.686 1643.437 237.564 C 1643.437 229.441 1650.021 222.857 1658.143 222.857 C 1666.266 222.857 1672.85 229.441 1672.85 237.564 Z " fill="rgb(0,0,0)"/><path d=" M 1750.251 199.863 C 1750.251 207.703 1743.896 214.058 1736.056 214.058 C 1728.217 214.058 1721.862 207.703 1721.862 199.863 C 1721.862 192.024 1728.217 185.669 1736.056 185.669 C 1743.896 185.669 1750.251 192.024 1750.251 199.863 Z " fill="rgb(0,0,0)"/><path d=" M 1659.74 127.678 C 1659.74 135.144 1653.688 141.196 1646.223 141.196 C 1638.757 141.196 1632.706 135.144 1632.706 127.678 C 1632.706 120.213 1638.757 114.161 1646.223 114.161 C 1653.688 114.161 1659.74 120.213 1659.74 127.678 Z " fill="rgb(0,0,0)"/><path d=" M 1751.75 247.09 C 1751.75 261.308 1740.224 272.834 1726.006 272.834 C 1711.788 272.834 1700.262 261.308 1700.262 247.09 C 1700.262 232.872 1711.788 221.346 1726.006 221.346 C 1740.224 221.346 1751.75 232.872 1751.75 247.09 Z " fill="rgb(0,0,0)"/><path d=" M 1650.567 171.614 C 1650.567 185.125 1639.614 196.078 1626.102 196.078 C 1612.591 196.078 1601.638 185.125 1601.638 171.614 C 1601.638 158.102 1612.591 147.149 1626.102 147.149 C 1639.614 147.149 1650.567 158.102 1650.567 171.614 Z " fill="rgb(0,0,0)"/><g><mask id="_mask_VWLUiD6jmzfjxr7pXx6d3BS5r8R6mMPB" x="-200%" y="-200%" width="400%" height="400%"><rect x="-200%" y="-200%" width="400%" height="400%" style="fill:white;"/><path d=" M 75.005 450.007 C 75.005 657.117 242.9 825.012 450.008 825.012 C 657.116 825.012 825.01 657.117 825.01 450.007 C 825.01 242.898 657.116 75.002 450.008 75.002 C 242.9 75.002 75.005 242.898 75.005 450.007 L 75.005 450.007 Z " fill="black" stroke="none"/></mask><path d=" M 75.005 450.007 C 75.005 657.117 242.9 825.012 450.008 825.012 C 657.116 825.012 825.01 657.117 825.01 450.007 C 825.01 242.898 657.116 75.002 450.008 75.002 C 242.9 75.002 75.005 242.898 75.005 450.007 L 75.005 450.007 Z " fill="none"/><path d=" M 75.005 450.007 C 75.005 657.117 242.9 825.012 450.008 825.012 C 657.116 825.012 825.01 657.117 825.01 450.007 C 825.01 242.898 657.116 75.002 450.008 75.002 C 242.9 75.002 75.005 242.898 75.005 450.007 L 75.005 450.007 Z " fill="none" mask="url(#_mask_VWLUiD6jmzfjxr7pXx6d3BS5r8R6mMPB)" vector-effect="non-scaling-stroke" stroke-width="100" stroke="rgb(212,0,0)" stroke-linejoin="miter" stroke-linecap="butt" stroke-miterlimit="4"/><mask id="_mask_y9hDk1H2Mp3LUoen4rFMu8WnHCvuD6ab" x="-200%" y="-200%" width="400%" height="400%"><rect x="-200%" y="-200%" width="400%" height="400%" style="fill:white;"/><path d=" M 274.991 450.005 C 274.991 546.656 353.341 625.008 449.99 625.008 C 546.639 625.008 624.989 546.656 624.989 450.005 C 624.989 353.353 546.639 275.001 449.99 275.001 C 353.341 275.001 274.991 353.353 274.991 450.005 L 274.991 450.005 Z " fill="black" stroke="none"/></mask><path d=" M 274.991 450.005 C 274.991 546.656 353.341 625.008 449.99 625.008 C 546.639 625.008 624.989 546.656 624.989 450.005 C 624.989 353.353 546.639 275.001 449.99 275.001 C 353.341 275.001 274.991 353.353 274.991 450.005 L 274.991 450.005 Z " fill="none"/><path d=" M 274.991 450.005 C 274.991 546.656 353.341 625.008 449.99 625.008 C 546.639 625.008 624.989 546.656 624.989 450.005 C 624.989 353.353 546.639 275.001 449.99 275.001 C 353.341 275.001 274.991 353.353 274.991 450.005 L 274.991 450.005 Z " fill="none" mask="url(#_mask_y9hDk1H2Mp3LUoen4rFMu8WnHCvuD6ab)" vector-effect="non-scaling-stroke" stroke-width="100" stroke="rgb(212,0,0)" stroke-linejoin="miter" stroke-linecap="butt" stroke-miterlimit="4"/><mask id="_mask_HhoR2yaO7WITYECL9jlQ5uILAscvNBBC" x="-200%" y="-200%" width="400%" height="400%"><rect x="-200%" y="-200%" width="400%" height="400%" style="fill:white;"/><path d=" M 174.99 450.003 C 174.99 601.876 298.11 724.994 449.986 724.994 C 601.862 724.994 724.982 601.876 724.982 450.003 C 724.982 298.13 601.862 175.012 449.986 175.012 C 298.11 175.012 174.99 298.13 174.99 450.003 L 174.99 450.003 Z " fill="black" stroke="none"/></mask><path d=" M 174.99 450.003 C 174.99 601.876 298.11 724.994 449.986 724.994 C 601.862 724.994 724.982 601.876 724.982 450.003 C 724.982 298.13 601.862 175.012 449.986 175.012 C 298.11 175.012 174.99 298.13 174.99 450.003 L 174.99 450.003 Z " fill="none"/><path d=" M 174.99 450.003 C 174.99 601.876 298.11 724.994 449.986 724.994 C 601.862 724.994 724.982 601.876 724.982 450.003 C 724.982 298.13 601.862 175.012 449.986 175.012 C 298.11 175.012 174.99 298.13 174.99 450.003 L 174.99 450.003 Z " fill="none" mask="url(#_mask_HhoR2yaO7WITYECL9jlQ5uILAscvNBBC)" vector-effect="non-scaling-stroke" stroke-width="100" stroke="rgb(212,0,0)" stroke-linejoin="miter" stroke-linecap="butt" stroke-miterlimit="4"/><mask id="_mask_EMgYRByGarhTXPEIwWROoakbPDapCU9k" x="-200%" y="-200%" width="400%" height="400%"><rect x="-200%" y="-200%" width="400%" height="400%" style="fill:white;"/><line x1="449.99" y1="0" x2="449.99" y2="899.999" fill="black" stroke="none"/></mask><line x1="449.99" y1="0" x2="449.99" y2="899.999" mask="url(#_mask_EMgYRByGarhTXPEIwWROoakbPDapCU9k)" vector-effect="non-scaling-stroke" stroke-width="10" stroke="rgb(36,28,28)" stroke-linejoin="miter" stroke-linecap="butt" stroke-miterlimit="4"/><mask id="_mask_02SOKOm9pIyWK9VJXrLEQhNYWVrDtrKc" x="-200%" y="-200%" width="400%" height="400%"><rect x="-200%" y="-200%" width="400%" height="400%" style="fill:white;"/><line x1="0" y1="449.99" x2="900" y2="449.99" fill="black" stroke="none"/></mask><line x1="0" y1="449.99" x2="900" y2="449.99" mask="url(#_mask_02SOKOm9pIyWK9VJXrLEQhNYWVrDtrKc)" vector-effect="non-scaling-stroke" stroke-width="10" stroke="rgb(36,28,28)" stroke-linejoin="miter" stroke-linecap="butt" stroke-miterlimit="4"/><path d=" M 350.006 450.005 C 350.006 505.238 394.777 550.013 450.006 550.013 C 505.234 550.013 550.005 505.238 550.005 450.005 C 550.005 394.772 505.234 349.997 450.006 349.997 C 394.777 349.997 350.006 394.772 350.006 450.005 L 350.006 450.005 Z " fill="rgb(212,0,0)"/></g><g><path d=" M 75.005 450.007 C 75.005 242.898 242.9 75.002 450.008 75.002 C 657.116 75.002 825.01 242.898 825.01 450.007 C 825.01 657.117 657.116 825.012 450.008 825.012 C 242.9 825.012 75.005 657.117 75.005 450.007 L 75.005 450.007 Z  M 25.01 450.01 C 24.99 421.26 27.88 392.59 33.63 364.43 C 39.24 337.04 47.54 310.29 58.43 284.55 C 79.8 234.09 110.72 188.22 149.49 149.48 C 188.22 110.72 234.09 79.8 284.55 58.43 C 310.29 47.54 337.04 39.24 364.42 33.63 C 392.59 27.88 421.26 24.99 450.01 25 C 478.75 24.99 507.43 27.88 535.6 33.63 C 562.97 39.24 589.73 47.54 615.46 58.43 C 665.93 79.8 711.79 110.72 750.53 149.48 C 789.3 188.22 820.22 234.09 841.59 284.55 C 852.47 310.29 860.78 337.04 866.38 364.42 C 872.13 392.58 875.02 421.26 875.01 450.01 C 875.02 478.75 872.13 507.43 866.38 535.6 C 860.78 562.97 852.47 589.73 841.59 615.46 C 820.22 665.93 789.3 711.79 750.53 750.53 C 711.79 789.3 665.93 820.22 615.46 841.59 C 589.73 852.47 562.97 860.78 535.6 866.38 C 507.43 872.13 478.75 875.02 450.01 875.01 C 421.26 875.02 392.59 872.13 364.42 866.38 C 337.04 860.78 310.29 852.47 284.55 841.59 C 234.09 820.22 188.22 789.3 149.49 750.53 C 110.72 711.79 79.8 665.93 58.43 615.46 C 47.54 589.73 39.24 562.97 33.64 535.6 C 27.89 507.43 24.99 478.75 25.01 450.01 Z " fill-rule="evenodd" fill="rgb(212,0,0)"/><path d=" M 274.991 450.005 C 274.991 353.353 353.341 275.001 449.99 275.001 C 546.639 275.001 624.989 353.353 624.989 450.005 C 624.989 546.656 546.639 625.008 449.99 625.008 C 353.341 625.008 274.991 546.656 274.991 450.005 L 274.991 450.005 Z  M 224.99 450 C 224.99 434.8 226.52 419.63 229.56 404.73 C 232.53 390.21 236.93 376.04 242.7 362.4 C 254.01 335.69 270.37 311.41 290.89 290.9 C 311.4 270.38 335.67 254.02 362.38 242.71 C 376.02 236.94 390.2 232.54 404.71 229.57 C 419.61 226.53 434.78 225 449.99 225 C 465.2 225 480.37 226.53 495.27 229.57 C 509.78 232.54 523.96 236.94 537.6 242.71 C 564.31 254.02 588.58 270.38 609.09 290.9 C 629.61 311.41 645.97 335.69 657.28 362.4 C 663.05 376.04 667.45 390.21 670.42 404.72 C 673.46 419.62 674.99 434.8 674.99 450 C 674.99 465.21 673.46 480.38 670.42 495.29 C 667.45 509.79 663.05 523.97 657.28 537.61 C 645.97 564.32 629.61 588.6 609.09 609.11 C 588.58 629.62 564.31 645.99 537.6 657.3 C 523.96 663.07 509.78 667.47 495.27 670.44 C 480.37 673.48 465.2 675.01 449.99 675.01 C 434.78 675.01 419.61 673.48 404.71 670.44 C 390.2 667.47 376.02 663.07 362.38 657.3 C 335.67 645.99 311.4 629.62 290.89 609.11 C 270.37 588.6 254.01 564.32 242.7 537.61 C 236.93 523.97 232.53 509.79 229.56 495.29 C 226.52 480.38 224.99 465.21 224.99 450 Z " fill-rule="evenodd" fill="rgb(212,0,0)"/><path d=" M 174.99 450.003 C 174.99 298.13 298.11 175.012 449.986 175.012 C 601.862 175.012 724.982 298.13 724.982 450.003 C 724.982 601.876 601.862 724.994 449.986 724.994 C 298.11 724.994 174.99 601.876 174.99 450.003 L 174.99 450.003 Z  M 124.99 450 C 124.98 428.03 127.19 406.11 131.59 384.58 C 135.87 363.63 142.23 343.16 150.55 323.48 C 166.89 284.89 190.54 249.82 220.18 220.2 C 249.8 190.56 284.87 166.92 323.46 150.58 C 343.14 142.25 363.61 135.9 384.55 131.61 C 406.09 127.21 428.01 125 449.99 125.01 C 471.96 125 493.89 127.21 515.42 131.61 C 536.36 135.9 556.83 142.25 576.51 150.58 C 615.1 166.92 650.17 190.56 679.79 220.2 C 709.43 249.82 733.08 284.89 749.42 323.48 C 757.74 343.16 764.1 363.63 768.38 384.57 C 772.78 406.1 774.99 428.03 774.98 450 C 774.99 471.98 772.78 493.9 768.38 515.44 C 764.1 536.38 757.74 556.84 749.42 576.53 C 733.08 615.12 709.43 650.19 679.79 679.81 C 650.17 709.45 615.1 733.09 576.51 749.43 C 556.83 757.76 536.36 764.11 515.42 768.39 C 493.89 772.79 471.96 775 449.99 774.99 C 428.01 775 406.09 772.79 384.55 768.39 C 363.61 764.11 343.14 757.76 323.46 749.43 C 284.87 733.09 249.8 709.45 220.18 679.81 C 190.54 650.19 166.89 615.12 150.55 576.53 C 142.23 556.84 135.87 536.38 131.59 515.44 C 127.19 493.9 124.98 471.98 124.99 450 Z " fill-rule="evenodd" fill="rgb(212,0,0)"/><mask id="_mask_BGa92WiFwmTMHZ8v55Fo2r5nt0LhZDpj" x="-200%" y="-200%" width="400%" height="400%"><rect x="-200%" y="-200%" width="400%" height="400%" style="fill:white;"/><line x1="449.99" y1="0" x2="449.99" y2="899.999" fill="black" stroke="none"/></mask><line x1="449.99" y1="0" x2="449.99" y2="899.999" mask="url(#_mask_BGa92WiFwmTMHZ8v55Fo2r5nt0LhZDpj)" vector-effect="non-scaling-stroke" stroke-width="10" stroke="rgb(36,28,28)" stroke-linejoin="miter" stroke-linecap="butt" stroke-miterlimit="4"/><mask id="_mask_EXr6ktOf9PLDKNjm2RLGzqqGFmPbJZao" x="-200%" y="-200%" width="400%" height="400%"><rect x="-200%" y="-200%" width="400%" height="400%" style="fill:white;"/><line x1="0" y1="449.99" x2="900" y2="449.99" fill="black" stroke="none"/></mask><line x1="0" y1="449.99" x2="900" y2="449.99" mask="url(#_mask_EXr6ktOf9PLDKNjm2RLGzqqGFmPbJZao)" vector-effect="non-scaling-stroke" stroke-width="10" stroke="rgb(36,28,28)" stroke-linejoin="miter" stroke-linecap="butt" stroke-miterlimit="4"/><path d=" M 350.006 450.005 C 350.006 505.238 394.777 550.013 450.006 550.013 C 505.234 550.013 550.005 505.238 550.005 450.005 C 550.005 394.772 505.234 349.997 450.006 349.997 C 394.777 349.997 350.006 394.772 350.006 450.005 L 350.006 450.005 Z " fill="rgb(212,0,0)"/></g><g><mask id="_mask_EhWl5uIelJZYjYTHaOTWbfMI5lB1vV6F" x="-200%" y="-200%" width="400%" height="400%"><rect x="-200%" y="-200%" width="400%" height="400%" style="fill:white;"/><path d=" M 2075.005 450.007 C 2075.005 657.117 2242.9 825.012 2450.008 825.012 C 2657.116 825.012 2825.01 657.117 2825.01 450.007 C 2825.01 242.898 2657.116 75.002 2450.008 75.002 C 2242.9 75.002 2075.005 242.898 2075.005 450.007 L 2075.005 450.007 Z " fill="black" stroke="none"/></mask><path d=" M 2075.005 450.007 C 2075.005 657.117 2242.9 825.012 2450.008 825.012 C 2657.116 825.012 2825.01 657.117 2825.01 450.007 C 2825.01 242.898 2657.116 75.002 2450.008 75.002 C 2242.9 75.002 2075.005 242.898 2075.005 450.007 L 2075.005 450.007 Z " fill="none"/><path d=" M 2075.005 450.007 C 2075.005 657.117 2242.9 825.012 2450.008 825.012 C 2657.116 825.012 2825.01 657.117 2825.01 450.007 C 2825.01 242.898 2657.116 75.002 2450.008 75.002 C 2242.9 75.002 2075.005 242.898 2075.005 450.007 L 2075.005 450.007 Z " fill="none" mask="url(#_mask_EhWl5uIelJZYjYTHaOTWbfMI5lB1vV6F)" vector-effect="non-scaling-stroke" stroke-width="100" stroke="rgb(212,0,0)" stroke-linejoin="miter" stroke-linecap="butt" stroke-miterlimit="4"/><mask id="_mask_JcYhfU8Av3zMQDXoz9yM3YDFEbDzYrM2" x="-200%" y="-200%" width="400%" height="400%"><rect x="-200%" y="-200%" width="400%" height="400%" style="fill:white;"/><path d=" M 2274.991 450.005 C 2274.991 546.656 2353.341 625.008 2449.99 625.008 C 2546.639 625.008 2624.989 546.656 2624.989 450.005 C 2624.989 353.353 2546.639 275.001 2449.99 275.001 C 2353.341 275.001 2274.991 353.353 2274.991 450.005 L 2274.991 450.005 Z " fill="black" stroke="none"/></mask><path d=" M 2274.991 450.005 C 2274.991 546.656 2353.341 625.008 2449.99 625.008 C 2546.639 625.008 2624.989 546.656 2624.989 450.005 C 2624.989 353.353 2546.639 275.001 2449.99 275.001 C 2353.341 275.001 2274.991 353.353 2274.991 450.005 L 2274.991 450.005 Z " fill="none"/><path d=" M 2274.991 450.005 C 2274.991 546.656 2353.341 625.008 2449.99 625.008 C 2546.639 625.008 2624.989 546.656 2624.989 450.005 C 2624.989 353.353 2546.639 275.001 2449.99 275.001 C 2353.341 275.001 2274.991 353.353 2274.991 450.005 L 2274.991 450.005 Z " fill="none" mask="url(#_mask_JcYhfU8Av3zMQDXoz9yM3YDFEbDzYrM2)" vector-effect="non-scaling-stroke" stroke-width="100" stroke="rgb(212,0,0)" stroke-linejoin="miter" stroke-linecap="butt" stroke-miterlimit="4"/><mask id="_mask_7p6eGdj8ucdD0AlTkr7UrDvF7Ya5NIaJ" x="-200%" y="-200%" width="400%" height="400%"><rect x="-200%" y="-200%" width="400%" height="400%" style="fill:white;"/><path d=" M 2174.99 450.003 C 2174.99 601.876 2298.11 724.994 2449.986 724.994 C 2601.862 724.994 2724.982 601.876 2724.982 450.003 C 2724.982 298.13 2601.862 175.012 2449.986 175.012 C 2298.11 175.012 2174.99 298.13 2174.99 450.003 L 2174.99 450.003 Z " fill="black" stroke="none"/></mask><path d=" M 2174.99 450.003 C 2174.99 601.876 2298.11 724.994 2449.986 724.994 C 2601.862 724.994 2724.982 601.876 2724.982 450.003 C 2724.982 298.13 2601.862 175.012 2449.986 175.012 C 2298.11 175.012 2174.99 298.13 2174.99 450.003 L 2174.99 450.003 Z " fill="none"/><path d=" M 2174.99 450.003 C 2174.99 601.876 2298.11 724.994 2449.986 724.994 C 2601.862 724.994 2724.982 601.876 2724.982 450.003 C 2724.982 298.13 2601.862 175.012 2449.986 175.012 C 2298.11 175.012 2174.99 298.13 2174.99 450.003 L 2174.99 450.003 Z " fill="none" mask="url(#_mask_7p6eGdj8ucdD0AlTkr7UrDvF7Ya5NIaJ)" vector-effect="non-scaling-stroke" stroke-width="100" stroke="rgb(212,0,0)" stroke-linejoin="miter" stroke-linecap="butt" stroke-miterlimit="4"/><mask id="_mask_U7ALo27mKmpTwQlf0eXq9N5FbBIuNiuL" x="-200%" y="-200%" width="400%" height="400%"><rect x="-200%" y="-200%" width="400%" height="400%" style="fill:white;"/><line x1="2449.99" y1="0" x2="2449.99" y2="899.999" fill="black" stroke="none"/></mask><line x1="2449.99" y1="0" x2="2449.99" y2="899.999" mask="url(#_mask_U7ALo27mKmpTwQlf0eXq9N5FbBIuNiuL)" vector-effect="non-scaling-stroke" stroke-width="10" stroke="rgb(36,28,28)" stroke-linejoin="miter" stroke-linecap="butt" stroke-miterlimit="4"/><mask id="_mask_CahOEfJlEcRTw9yRdK9MaDisddIkQCZJ" x="-200%" y="-200%" width="400%" height="400%"><rect x="-200%" y="-200%" width="400%" height="400%" style="fill:white;"/><line x1="2000" y1="449.99" x2="2900" y2="449.99" fill="black" stroke="none"/></mask><line x1="2000" y1="449.99" x2="2900" y2="449.99" mask="url(#_mask_CahOEfJlEcRTw9yRdK9MaDisddIkQCZJ)" vector-effect="non-scaling-stroke" stroke-width="10" stroke="rgb(36,28,28)" stroke-linejoin="miter" stroke-linecap="butt" stroke-miterlimit="4"/><path d=" M 2350.006 450.005 C 2350.006 505.238 2394.777 550.013 2450.006 550.013 C 2505.234 550.013 2550.005 505.238 2550.005 450.005 C 2550.005 394.772 2505.234 349.997 2450.006 349.997 C 2394.777 349.997 2350.006 394.772 2350.006 450.005 L 2350.006 450.005 Z " fill="rgb(212,0,0)"/></g><path d=" M 609.277 366.437 C 609.277 384.354 623.801 398.878 641.718 398.878 C 659.635 398.878 674.16 384.354 674.16 366.437 C 674.16 348.52 659.635 333.995 641.718 333.995 C 623.801 333.995 609.277 348.52 609.277 366.437 Z " fill="rgb(0,0,0)"/><path d=" M 622.073 259.279 C 622.073 270.442 631.123 279.492 642.286 279.492 C 653.45 279.492 662.5 270.442 662.5 259.279 C 662.5 248.115 653.45 239.065 642.286 239.065 C 631.123 239.065 622.073 248.115 622.073 259.279 Z " fill="rgb(0,0,0)"/><path d=" M 562.917 215.335 C 562.917 226.103 571.645 234.831 582.412 234.831 C 593.18 234.831 601.908 226.103 601.908 215.335 C 601.908 204.568 593.18 195.84 582.412 195.84 C 571.645 195.84 562.917 204.568 562.917 215.335 Z " fill="rgb(0,0,0)"/><path d=" M 669.296 298.239 C 669.296 311.007 679.646 321.357 692.414 321.357 C 705.182 321.357 715.532 311.007 715.532 298.239 C 715.532 285.471 705.182 275.121 692.414 275.121 C 679.646 275.121 669.296 285.471 669.296 298.239 Z " fill="rgb(0,0,0)"/><path d=" M 501.835 228.151 C 501.835 238.436 510.172 246.773 520.457 246.773 C 530.741 246.773 539.078 238.436 539.078 228.151 C 539.078 217.867 530.741 209.53 520.457 209.53 C 510.172 209.53 501.835 217.867 501.835 228.151 Z " fill="rgb(0,0,0)"/><path d=" M 411.347 232.929 C 411.347 247.241 422.949 258.843 437.261 258.843 C 451.573 258.843 463.175 247.241 463.175 232.929 C 463.175 218.617 451.573 207.015 437.261 207.015 C 422.949 207.015 411.347 218.617 411.347 232.929 Z " fill="rgb(0,0,0)"/><path d=" M 286.897 326.405 C 286.897 334.097 293.132 340.332 300.823 340.332 C 308.515 340.332 314.75 334.097 314.75 326.405 C 314.75 318.714 308.515 312.479 300.823 312.479 C 293.132 312.479 286.897 318.714 286.897 326.405 Z " fill="rgb(0,0,0)"/><path d=" M 56.503 629.105 C 56.503 644.618 69.08 657.194 84.593 657.194 C 100.106 657.194 112.682 644.618 112.682 629.105 C 112.682 613.592 100.106 601.016 84.593 601.016 C 69.08 601.016 56.503 613.592 56.503 629.105 Z " fill="rgb(0,0,0)"/><path d=" M 135.768 562.438 C 135.768 575.136 146.061 585.43 158.759 585.43 C 171.457 585.43 181.75 575.136 181.75 562.438 C 181.75 549.741 171.457 539.447 158.759 539.447 C 146.061 539.447 135.768 549.741 135.768 562.438 Z " fill="rgb(0,0,0)"/><path d=" M 100.87 787.989 C 100.87 803.08 113.104 815.314 128.195 815.314 C 143.286 815.314 155.52 803.08 155.52 787.989 C 155.52 772.898 143.286 760.664 128.195 760.664 C 113.104 760.664 100.87 772.898 100.87 787.989 Z " fill="rgb(0,0,0)"/><path d=" M 40.565 455.915 C 40.565 470.688 52.541 482.663 67.314 482.663 C 82.086 482.663 94.062 470.688 94.062 455.915 C 94.062 441.142 82.086 429.166 67.314 429.166 C 52.541 429.166 40.565 441.142 40.565 455.915 Z " fill="rgb(0,0,0)"/><path d=" M 201.323 796.138 C 201.323 806.214 209.491 814.382 219.567 814.382 C 229.643 814.382 237.811 806.214 237.811 796.138 C 237.811 786.062 229.643 777.894 219.567 777.894 C 209.491 777.894 201.323 786.062 201.323 796.138 Z " fill="rgb(0,0,0)"/><path d=" M 401.824 726.844 C 401.824 738.947 411.636 748.759 423.74 748.759 C 435.843 748.759 445.655 738.947 445.655 726.844 C 445.655 714.74 435.843 704.928 423.74 704.928 C 411.636 704.928 401.824 714.74 401.824 726.844 Z " fill="rgb(0,0,0)"/><path d=" M 258.258 698.122 C 258.258 705.589 264.311 711.642 271.778 711.642 C 279.244 711.642 285.298 705.589 285.298 698.122 C 285.298 690.655 279.244 684.602 271.778 684.602 C 264.311 684.602 258.258 690.655 258.258 698.122 Z " fill="rgb(0,0,0)"/><path d=" M 468.193 646.599 C 468.193 653.481 473.772 659.059 480.653 659.059 C 487.535 659.059 493.113 653.481 493.113 646.599 C 493.113 639.718 487.535 634.139 480.653 634.139 C 473.772 634.139 468.193 639.718 468.193 646.599 Z " fill="rgb(0,0,0)"/><path d=" M 321.097 725.727 C 321.097 733.243 327.19 739.336 334.706 739.336 C 342.222 739.336 348.315 733.243 348.315 725.727 C 348.315 718.211 342.222 712.118 334.706 712.118 C 327.19 712.118 321.097 718.211 321.097 725.727 Z " fill="rgb(0,0,0)"/><path d=" M 454.532 767.045 C 454.532 774.562 460.626 780.655 468.142 780.655 C 475.659 780.655 481.753 774.562 481.753 767.045 C 481.753 759.528 475.659 753.435 468.142 753.435 C 460.626 753.435 454.532 759.528 454.532 767.045 Z " fill="rgb(0,0,0)"/><path d=" M 520.384 716.209 C 520.384 723.22 526.068 728.904 533.079 728.904 C 540.09 728.904 545.774 723.22 545.774 716.209 C 545.774 709.197 540.09 703.513 533.079 703.513 C 526.068 703.513 520.384 709.197 520.384 716.209 Z " fill="rgb(0,0,0)"/><path d=" M 265.011 591.558 C 265.011 598.304 270.479 603.772 277.225 603.772 C 283.97 603.772 289.438 598.304 289.438 591.558 C 289.438 584.813 283.97 579.345 277.225 579.345 C 270.479 579.345 265.011 584.813 265.011 591.558 Z " fill="rgb(0,0,0)"/><path d=" M 559.399 601.484 C 559.399 617.507 572.388 630.497 588.412 630.497 C 604.435 630.497 617.425 617.507 617.425 601.484 C 617.425 585.46 604.435 572.471 588.412 572.471 C 572.388 572.471 559.399 585.46 559.399 601.484 Z " fill="rgb(0,0,0)"/><path d=" M 405.902 620.163 C 405.902 627.021 411.462 632.581 418.32 632.581 C 425.178 632.581 430.737 627.021 430.737 620.163 C 430.737 613.305 425.178 607.745 418.32 607.745 C 411.462 607.745 405.902 613.305 405.902 620.163 Z " fill="rgb(0,0,0)"/><path d=" M 482.025 464.057 C 482.025 473.882 489.989 481.846 499.813 481.846 C 509.638 481.846 517.602 473.882 517.602 464.057 C 517.602 454.233 509.638 446.269 499.813 446.269 C 489.989 446.269 482.025 454.233 482.025 464.057 Z " fill="rgb(0,0,0)"/><path d=" M 606.661 486.987 C 606.661 494.348 612.628 500.316 619.99 500.316 C 627.351 500.316 633.318 494.348 633.318 486.987 C 633.318 479.625 627.351 473.658 619.99 473.658 C 612.628 473.658 606.661 479.625 606.661 486.987 Z " fill="rgb(0,0,0)"/><path d=" M 2244.908 378.155 C 2244.908 390.307 2254.759 400.159 2266.912 400.159 C 2279.065 400.159 2288.917 390.307 2288.917 378.155 C 2288.917 366.002 2279.065 356.15 2266.912 356.15 C 2254.759 356.15 2244.908 366.002 2244.908 378.155 Z " fill="rgb(0,0,0)"/><path d=" M 2324.151 317.863 C 2324.151 323.769 2328.939 328.557 2334.845 328.557 C 2340.752 328.557 2345.54 323.769 2345.54 317.863 C 2345.54 311.956 2340.752 307.168 2334.845 307.168 C 2328.939 307.168 2324.151 311.956 2324.151 317.863 Z " fill="rgb(0,0,0)"/><path d=" M 2128.501 245.117 C 2128.501 252.41 2134.412 258.321 2141.705 258.321 C 2148.997 258.321 2154.908 252.41 2154.908 245.117 C 2154.908 237.825 2148.997 231.914 2141.705 231.914 C 2134.412 231.914 2128.501 237.825 2128.501 245.117 Z " fill="rgb(0,0,0)"/><path d=" M 2353.781 47.555 C 2353.781 65.348 2368.205 79.773 2385.999 79.773 C 2403.793 79.773 2418.217 65.348 2418.217 47.555 C 2418.217 29.761 2403.793 15.336 2385.999 15.336 C 2368.205 15.336 2353.781 29.761 2353.781 47.555 Z " fill="rgb(0,0,0)"/><path d=" M 2330.71 180.533 C 2330.71 192.239 2340.199 201.729 2351.905 201.729 C 2363.611 201.729 2373.101 192.239 2373.101 180.533 C 2373.101 168.828 2363.611 159.338 2351.905 159.338 C 2340.199 159.338 2330.71 168.828 2330.71 180.533 Z " fill="rgb(0,0,0)"/><path d=" M 2342.703 86.304 C 2342.703 93.663 2348.668 99.629 2356.027 99.629 C 2363.386 99.629 2369.351 93.663 2369.351 86.304 C 2369.351 78.946 2363.386 72.98 2356.027 72.98 C 2348.668 72.98 2342.703 78.946 2342.703 86.304 Z " fill="rgb(0,0,0)"/><path d=" M 2141.599 438.539 C 2141.599 451.568 2152.161 462.129 2165.189 462.129 C 2178.217 462.129 2188.778 451.568 2188.778 438.539 C 2188.778 425.511 2178.217 414.95 2165.189 414.95 C 2152.161 414.95 2141.599 425.511 2141.599 438.539 Z " fill="rgb(0,0,0)"/><path d=" M 2302.686 264.978 C 2302.686 273.073 2309.248 279.635 2317.344 279.635 C 2325.439 279.635 2332.002 273.073 2332.002 264.978 C 2332.002 256.882 2325.439 250.32 2317.344 250.32 C 2309.248 250.32 2302.686 256.882 2302.686 264.978 Z " fill="rgb(0,0,0)"/><path d=" M 2251.673 188.26 C 2251.673 198.138 2259.681 206.145 2269.559 206.145 C 2279.437 206.145 2287.444 198.138 2287.444 188.26 C 2287.444 178.382 2279.437 170.374 2269.559 170.374 C 2259.681 170.374 2251.673 178.382 2251.673 188.26 Z " fill="rgb(0,0,0)"/><path d=" M 2256.646 311.393 C 2256.646 320.892 2264.347 328.593 2273.846 328.593 C 2283.346 328.593 2291.047 320.892 2291.047 311.393 C 2291.047 301.893 2283.346 294.192 2273.846 294.192 C 2264.347 294.192 2256.646 301.893 2256.646 311.393 Z " fill="rgb(0,0,0)"/><path d=" M 2094.687 361.065 C 2094.687 375.299 2106.226 386.838 2120.46 386.838 C 2134.693 386.838 2146.232 375.299 2146.232 361.065 C 2146.232 346.832 2134.693 335.293 2120.46 335.293 C 2106.226 335.293 2094.687 346.832 2094.687 361.065 Z " fill="rgb(0,0,0)"/><path d=" M 2187.238 344.226 C 2187.238 350.003 2191.921 354.686 2197.698 354.686 C 2203.474 354.686 2208.157 350.003 2208.157 344.226 C 2208.157 338.449 2203.474 333.766 2197.698 333.766 C 2191.921 333.766 2187.238 338.449 2187.238 344.226 Z " fill="rgb(0,0,0)"/><path d=" M 2144.635 322.92 C 2144.635 332.452 2152.363 340.18 2161.896 340.18 C 2171.428 340.18 2179.156 332.452 2179.156 322.92 C 2179.156 313.387 2171.428 305.659 2161.896 305.659 C 2152.363 305.659 2144.635 313.387 2144.635 322.92 Z " fill="rgb(0,0,0)"/><path d=" M 2218.557 267.705 C 2218.557 277.032 2226.117 284.593 2235.444 284.593 C 2244.771 284.593 2252.331 277.032 2252.331 267.705 C 2252.331 258.379 2244.771 250.818 2235.444 250.818 C 2226.117 250.818 2218.557 258.379 2218.557 267.705 Z " fill="rgb(0,0,0)"/><path d=" M 2229.817 101.108 C 2229.817 116.144 2242.006 128.333 2257.042 128.333 C 2272.077 128.333 2284.266 116.144 2284.266 101.108 C 2284.266 86.072 2272.077 73.883 2257.042 73.883 C 2242.006 73.883 2229.817 86.072 2229.817 101.108 Z " fill="rgb(0,0,0)"/><path d=" M 2148.567 201.688 C 2148.567 207.853 2153.565 212.851 2159.73 212.851 C 2165.895 212.851 2170.893 207.853 2170.893 201.688 C 2170.893 195.524 2165.895 190.526 2159.73 190.526 C 2153.565 190.526 2148.567 195.524 2148.567 201.688 Z " fill="rgb(0,0,0)"/><path d=" M 2204.261 146.078 C 2204.261 153.056 2209.918 158.713 2216.896 158.713 C 2223.874 158.713 2229.531 153.056 2229.531 146.078 C 2229.531 139.1 2223.874 133.444 2216.896 133.444 C 2209.918 133.444 2204.261 139.1 2204.261 146.078 Z " fill="rgb(0,0,0)"/><path d=" M 2094.474 123.043 C 2094.474 135.647 2104.692 145.865 2117.296 145.865 C 2129.901 145.865 2140.118 135.647 2140.118 123.043 C 2140.118 110.439 2129.901 100.221 2117.296 100.221 C 2104.692 100.221 2094.474 110.439 2094.474 123.043 Z " fill="rgb(0,0,0)"/><path d=" M 2271.192 137.658 C 2271.192 147.616 2279.265 155.689 2289.223 155.689 C 2299.181 155.689 2307.254 147.616 2307.254 137.658 C 2307.254 127.7 2299.181 119.627 2289.223 119.627 C 2279.265 119.627 2271.192 127.7 2271.192 137.658 Z " fill="rgb(0,0,0)"/><path d=" M 2374.994 126.605 C 2374.994 135.578 2382.268 142.853 2391.241 142.853 C 2400.215 142.853 2407.489 135.578 2407.489 126.605 C 2407.489 117.632 2400.215 110.357 2391.241 110.357 C 2382.268 110.357 2374.994 117.632 2374.994 126.605 Z " fill="rgb(0,0,0)"/><path d=" M 2373.331 249.806 C 2373.331 263.384 2384.338 274.392 2397.917 274.392 C 2411.495 274.392 2422.503 263.384 2422.503 249.806 C 2422.503 236.227 2411.495 225.22 2397.917 225.22 C 2384.338 225.22 2373.331 236.227 2373.331 249.806 Z " fill="rgb(0,0,0)"/><path d=" M 204.764 341.8 C 204.764 350.455 211.78 357.471 220.435 357.471 C 229.089 357.471 236.105 350.455 236.105 341.8 C 236.105 333.145 229.089 326.13 220.435 326.13 C 211.78 326.13 204.764 333.145 204.764 341.8 Z " fill="rgb(0,0,0)"/><path d=" M 320.247 55.756 C 320.247 63.229 326.305 69.287 333.778 69.287 C 341.251 69.287 347.309 63.229 347.309 55.756 C 347.309 48.283 341.251 42.225 333.778 42.225 C 326.305 42.225 320.247 48.283 320.247 55.756 Z " fill="rgb(0,0,0)"/><path d=" M 201.968 163.176 C 201.968 172.741 209.723 180.496 219.288 180.496 C 228.853 180.496 236.608 172.741 236.608 163.176 C 236.608 153.611 228.853 145.857 219.288 145.857 C 209.723 145.857 201.968 153.611 201.968 163.176 Z " fill="rgb(0,0,0)"/><path d=" M 244.224 238.816 C 244.224 250.327 253.555 259.658 265.066 259.658 C 276.576 259.658 285.908 250.327 285.908 238.816 C 285.908 227.306 276.576 217.975 265.066 217.975 C 253.555 217.975 244.224 227.306 244.224 238.816 Z " fill="rgb(0,0,0)"/><path d=" M 89.988 311.332 C 89.988 322.676 99.184 331.872 110.529 331.872 C 121.873 331.872 131.069 322.676 131.069 311.332 C 131.069 299.987 121.873 290.791 110.529 290.791 C 99.184 290.791 89.988 299.987 89.988 311.332 Z " fill="rgb(0,0,0)"/><path d=" M 247.584 428.02 C 247.584 443.871 260.434 456.721 276.285 456.721 C 292.136 456.721 304.986 443.871 304.986 428.02 C 304.986 412.169 292.136 399.319 276.285 399.319 C 260.434 399.319 247.584 412.169 247.584 428.02 Z " fill="rgb(0,0,0)"/><path d=" M 83.943 171.318 C 83.943 182.844 93.286 192.187 104.812 192.187 C 116.338 192.187 125.681 182.844 125.681 171.318 C 125.681 159.792 116.338 150.449 104.812 150.449 C 93.286 150.449 83.943 159.792 83.943 171.318 Z " fill="rgb(0,0,0)"/><path d=" M 769.868 742.476 C 769.868 753.02 778.415 761.568 788.96 761.568 C 799.504 761.568 808.052 753.02 808.052 742.476 C 808.052 731.932 799.504 723.384 788.96 723.384 C 778.415 723.384 769.868 731.932 769.868 742.476 Z " fill="rgb(0,0,0)"/><path d=" M 557.877 140.87 C 557.877 150.081 565.345 157.548 574.556 157.548 C 583.768 157.548 591.235 150.081 591.235 140.87 C 591.235 131.658 583.768 124.191 574.556 124.191 C 565.345 124.191 557.877 131.658 557.877 140.87 Z " fill="rgb(0,0,0)"/><path d=" M 740.651 572.717 C 740.651 590.768 755.284 605.401 773.335 605.401 C 791.386 605.401 806.019 590.768 806.019 572.717 C 806.019 554.666 791.386 540.033 773.335 540.033 C 755.284 540.033 740.651 554.666 740.651 572.717 Z " fill="rgb(0,0,0)"/><path d=" M 755.058 355.619 C 755.058 371.312 767.78 384.034 783.473 384.034 C 799.167 384.034 811.888 371.312 811.888 355.619 C 811.888 339.926 799.167 327.204 783.473 327.204 C 767.78 327.204 755.058 339.926 755.058 355.619 Z " fill="rgb(0,0,0)"/><path d=" M 685.841 161.558 C 685.841 177.116 698.453 189.728 714.01 189.728 C 729.568 189.728 742.18 177.116 742.18 161.558 C 742.18 146.001 729.568 133.389 714.01 133.389 C 698.453 133.389 685.841 146.001 685.841 161.558 Z " fill="rgb(0,0,0)"/><path d=" M 2636.326 252.774 C 2636.326 262.905 2644.539 271.118 2654.67 271.118 C 2664.801 271.118 2673.014 262.905 2673.014 252.774 C 2673.014 242.643 2664.801 234.43 2654.67 234.43 C 2644.539 234.43 2636.326 242.643 2636.326 252.774 Z " fill="rgb(0,0,0)"/><path d=" M 2675.614 391.307 C 2675.614 404.664 2686.442 415.492 2699.799 415.492 C 2713.156 415.492 2723.984 404.664 2723.984 391.307 C 2723.984 377.95 2713.156 367.121 2699.799 367.121 C 2686.442 367.121 2675.614 377.95 2675.614 391.307 Z " fill="rgb(0,0,0)"/><path d=" M 2560.606 304.189 C 2560.606 314.604 2569.049 323.047 2579.464 323.047 C 2589.879 323.047 2598.322 314.604 2598.322 304.189 C 2598.322 293.774 2589.879 285.331 2579.464 285.331 C 2569.049 285.331 2560.606 293.774 2560.606 304.189 Z " fill="rgb(0,0,0)"/><path d=" M 2474.922 85.855 C 2474.922 102.408 2488.341 115.827 2504.894 115.827 C 2521.447 115.827 2534.866 102.408 2534.866 85.855 C 2534.866 69.302 2521.447 55.883 2504.894 55.883 C 2488.341 55.883 2474.922 69.302 2474.922 85.855 Z " fill="rgb(0,0,0)"/><path d=" M 2404.346 219.302 C 2404.346 225.857 2409.659 231.17 2416.213 231.17 C 2422.768 231.17 2428.081 225.857 2428.081 219.302 C 2428.081 212.748 2422.768 207.435 2416.213 207.435 C 2409.659 207.435 2404.346 212.748 2404.346 219.302 Z " fill="rgb(0,0,0)"/><path d=" M 2570.7 248.636 C 2570.7 255.694 2576.421 261.416 2583.479 261.416 C 2590.537 261.416 2596.259 255.694 2596.259 248.636 C 2596.259 241.578 2590.537 235.856 2583.479 235.856 C 2576.421 235.856 2570.7 241.578 2570.7 248.636 Z " fill="rgb(0,0,0)"/><path d=" M 2597.968 189.358 C 2597.968 195.565 2603 200.596 2609.206 200.596 C 2615.412 200.596 2620.444 195.565 2620.444 189.358 C 2620.444 183.152 2615.412 178.121 2609.206 178.121 C 2603 178.121 2597.968 183.152 2597.968 189.358 Z " fill="rgb(0,0,0)"/><path d=" M 2634.986 122.031 C 2634.986 129.966 2641.419 136.399 2649.354 136.399 C 2657.289 136.399 2663.722 129.966 2663.722 122.031 C 2663.722 114.096 2657.289 107.663 2649.354 107.663 C 2641.419 107.663 2634.986 114.096 2634.986 122.031 Z " fill="rgb(0,0,0)"/><path d=" M 2580.726 61.752 C 2580.726 79.85 2595.398 94.521 2613.496 94.521 C 2631.593 94.521 2646.265 79.85 2646.265 61.752 C 2646.265 43.654 2631.593 28.983 2613.496 28.983 C 2595.398 28.983 2580.726 43.654 2580.726 61.752 Z " fill="rgb(0,0,0)"/><path d=" M 2680.097 208.441 C 2680.097 214.593 2685.084 219.581 2691.237 219.581 C 2697.389 219.581 2702.376 214.593 2702.376 208.441 C 2702.376 202.289 2697.389 197.302 2691.237 197.302 C 2685.084 197.302 2680.097 202.289 2680.097 208.441 Z " fill="rgb(0,0,0)"/><path d=" M 2734.495 90.94 C 2734.495 101.762 2743.268 110.535 2754.09 110.535 C 2764.912 110.535 2773.686 101.762 2773.686 90.94 C 2773.686 80.118 2764.912 71.344 2754.09 71.344 C 2743.268 71.344 2734.495 80.118 2734.495 90.94 Z " fill="rgb(0,0,0)"/><path d=" M 2522.044 137.143 C 2522.044 143.847 2527.478 149.281 2534.182 149.281 C 2540.886 149.281 2546.32 143.847 2546.32 137.143 C 2546.32 130.439 2540.886 125.005 2534.182 125.005 C 2527.478 125.005 2522.044 130.439 2522.044 137.143 Z " fill="rgb(0,0,0)"/><path d=" M 2646.76 251.026 C 2646.76 261.333 2655.115 269.688 2665.422 269.688 C 2675.728 269.688 2684.084 261.333 2684.084 251.026 C 2684.084 240.72 2675.728 232.364 2665.422 232.364 C 2655.115 232.364 2646.76 240.72 2646.76 251.026 Z " fill="rgb(0,0,0)"/><path d=" M 2568.321 156.643 C 2568.321 167.242 2576.913 175.834 2587.512 175.834 C 2598.111 175.834 2606.703 167.242 2606.703 156.643 C 2606.703 146.045 2598.111 137.453 2587.512 137.453 C 2576.913 137.453 2568.321 146.045 2568.321 156.643 Z " fill="rgb(0,0,0)"/><path d=" M 2498.961 198.181 C 2498.961 212.581 2510.634 224.254 2525.033 224.254 C 2539.433 224.254 2551.106 212.581 2551.106 198.181 C 2551.106 183.782 2539.433 172.109 2525.033 172.109 C 2510.634 172.109 2498.961 183.782 2498.961 198.181 Z " fill="rgb(0,0,0)"/><path d=" M 2565.239 241.093 C 2565.239 255.016 2576.526 266.303 2590.449 266.303 C 2604.372 266.303 2615.659 255.016 2615.659 241.093 C 2615.659 227.17 2604.372 215.883 2590.449 215.883 C 2576.526 215.883 2565.239 227.17 2565.239 241.093 Z " fill="rgb(0,0,0)"/><path d=" M 2671.252 169.874 C 2671.252 180.352 2679.746 188.847 2690.224 188.847 C 2700.703 188.847 2709.197 180.352 2709.197 169.874 C 2709.197 159.396 2700.703 150.901 2690.224 150.901 C 2679.746 150.901 2671.252 159.396 2671.252 169.874 Z " fill="rgb(0,0,0)"/><path d=" M 2714.151 268.904 C 2714.151 284.708 2726.962 297.519 2742.766 297.519 C 2758.569 297.519 2771.381 284.708 2771.381 268.904 C 2771.381 253.1 2758.569 240.289 2742.766 240.289 C 2726.962 240.289 2714.151 253.1 2714.151 268.904 Z " fill="rgb(0,0,0)"/><path d=" M 2758.468 160.272 C 2758.468 174.521 2770.02 186.073 2784.27 186.073 C 2798.519 186.073 2810.071 174.521 2810.071 160.272 C 2810.071 146.022 2798.519 134.47 2784.27 134.47 C 2770.02 134.47 2758.468 146.022 2758.468 160.272 Z " fill="rgb(0,0,0)"/><path d=" M 2446.033 202.511 C 2446.033 212.577 2454.194 220.738 2464.26 220.738 C 2474.327 220.738 2482.487 212.577 2482.487 202.511 C 2482.487 192.444 2474.327 184.283 2464.26 184.283 C 2454.194 184.283 2446.033 192.444 2446.033 202.511 Z " fill="rgb(0,0,0)"/><g clip-path="url(#_clipPath_oYlmD8liG0P15yL3tDLA0xOVmt8evbjO)"><text transform="matrix(1,0,0,1,1146.005,994.83)" style="font-family:'Open Sans';font-weight:400;font-size:70px;font-style:normal;font-variant-ligatures:none;fill:[Object GRGBColor];stroke:none;">B: Reliable, Not Valid</text></g><defs><clipPath id="_clipPath_oYlmD8liG0P15yL3tDLA0xOVmt8evbjO"><rect x="0" y="0" width="674" height="95.327" transform="matrix(1,0,0,1,1146.005,920.011)"/></clipPath></defs><g clip-path="url(#_clipPath_eVVF3dZJBEgHzOXaXBwQVFwnynV3GKgp)"><text transform="matrix(1,0,0,1,2103,994.83)" style="font-family:'Open Sans';font-weight:400;font-size:70px;font-style:normal;font-variant-ligatures:none;fill:[Object GRGBColor];stroke:none;">C: Unreliable, Not Valid</text></g><defs><clipPath id="_clipPath_eVVF3dZJBEgHzOXaXBwQVFwnynV3GKgp"><rect x="0" y="0" width="752" height="95.327" transform="matrix(1,0,0,1,2103,920.011)"/></clipPath></defs><g clip-path="url(#_clipPath_93KE58ZHjZzjghv9mMUu3BKiWFxGFbEo)"><text transform="matrix(1,0,0,1,3100,994.83)" style="font-family:'Open Sans';font-weight:400;font-size:70px;font-style:normal;font-variant-ligatures:none;fill:[Object GRGBColor];stroke:none;">D: Reliable and Valid</text></g><defs><clipPath id="_clipPath_93KE58ZHjZzjghv9mMUu3BKiWFxGFbEo"><rect x="0" y="0" width="667" height="95.327" transform="matrix(1,0,0,1,3100,920.011)"/></clipPath></defs><g clip-path="url(#_clipPath_SphhkTzJBWWLYh0GPyKGo9Oofr8L73un)"><text transform="matrix(1,0,0,1,175,994.83)" style="font-family:'Open Sans';font-weight:400;font-size:70px;font-style:normal;font-variant-ligatures:none;fill:[Object GRGBColor];stroke:none;">A: Unreliable, Valid</text></g><defs><clipPath id="_clipPath_SphhkTzJBWWLYh0GPyKGo9Oofr8L73un"><rect x="0" y="0" width="614" height="95.327" transform="matrix(1,0,0,1,175,920.011)"/></clipPath></defs></g></svg>